<svg width="205" height="262" viewBox="0 0 205 262" fill="none" xmlns="http://www.w3.org/2000/svg">
<circle cx="3.5" cy="3.5" r="3.5" fill="#3C42B9" fill-opacity="0.1"/>
<circle cx="3.5" cy="71.5" r="3.5" fill="#3C42B9" fill-opacity="0.1"/>
<circle cx="3.5" cy="139.5" r="3.5" fill="#3C42B9" fill-opacity="0.1"/>
<circle cx="3.5" cy="207.5" r="3.5" fill="#3C42B9" fill-opacity="0.1"/>
<circle cx="3.5" cy="37.5" r="3.5" fill="#3C42B9" fill-opacity="0.1"/>
<circle cx="3.5" cy="105.5" r="3.5" fill="#3C42B9" fill-opacity="0.1"/>
<circle cx="3.5" cy="173.5" r="3.5" fill="#3C42B9" fill-opacity="0.1"/>
<circle cx="3.5" cy="241.5" r="3.5" fill="#3C42B9" fill-opacity="0.1"/>
<circle cx="3.5" cy="20.5" r="3.5" fill="#3C42B9" fill-opacity="0.1"/>
<circle cx="3.5" cy="88.5" r="3.5" fill="#3C42B9" fill-opacity="0.1"/>
<circle cx="3.5" cy="156.5" r="3.5" fill="#3C42B9" fill-opacity="0.1"/>
<circle cx="3.5" cy="224.5" r="3.5" fill="#3C42B9" fill-opacity="0.1"/>
<circle cx="3.5" cy="54.5" r="3.5" fill="#3C42B9" fill-opacity="0.1"/>
<circle cx="3.5" cy="122.5" r="3.5" fill="#3C42B9" fill-opacity="0.1"/>
<circle cx="3.5" cy="190.5" r="3.5" fill="#3C42B9" fill-opacity="0.1"/>
<circle cx="3.5" cy="258.5" r="3.5" fill="#3C42B9" fill-opacity="0.1"/>
<circle cx="69.5" cy="3.5" r="3.5" fill="#3C42B9" fill-opacity="0.1"/>
<circle cx="69.5" cy="71.5" r="3.5" fill="#3C42B9" fill-opacity="0.1"/>
<circle cx="69.5" cy="139.5" r="3.5" fill="#3C42B9" fill-opacity="0.1"/>
<circle cx="69.5" cy="207.5" r="3.5" fill="#3C42B9" fill-opacity="0.1"/>
<circle cx="69.5" cy="37.5" r="3.5" fill="#3C42B9" fill-opacity="0.1"/>
<circle cx="69.5" cy="105.5" r="3.5" fill="#3C42B9" fill-opacity="0.1"/>
<circle cx="69.5" cy="173.5" r="3.5" fill="#3C42B9" fill-opacity="0.1"/>
<circle cx="69.5" cy="241.5" r="3.5" fill="#3C42B9" fill-opacity="0.1"/>
<circle cx="69.5" cy="20.5" r="3.5" fill="#3C42B9" fill-opacity="0.1"/>
<circle cx="69.5" cy="88.5" r="3.5" fill="#3C42B9" fill-opacity="0.1"/>
<circle cx="69.5" cy="156.5" r="3.5" fill="#3C42B9" fill-opacity="0.1"/>
<circle cx="69.5" cy="224.5" r="3.5" fill="#3C42B9" fill-opacity="0.1"/>
<circle cx="69.5" cy="54.5" r="3.5" fill="#3C42B9" fill-opacity="0.1"/>
<circle cx="69.5" cy="122.5" r="3.5" fill="#3C42B9" fill-opacity="0.1"/>
<circle cx="69.5" cy="190.5" r="3.5" fill="#3C42B9" fill-opacity="0.1"/>
<circle cx="69.5" cy="258.5" r="3.5" fill="#3C42B9" fill-opacity="0.1"/>
<circle cx="157.5" cy="3.5" r="3.5" fill="#3C42B9" fill-opacity="0.1"/>
<circle cx="157.5" cy="71.5" r="3.5" fill="#3C42B9" fill-opacity="0.1"/>
<circle cx="157.5" cy="139.5" r="3.5" fill="#3C42B9" fill-opacity="0.1"/>
<circle cx="157.5" cy="207.5" r="3.5" fill="#3C42B9" fill-opacity="0.1"/>
<circle cx="157.5" cy="37.5" r="3.5" fill="#3C42B9" fill-opacity="0.1"/>
<circle cx="157.5" cy="105.5" r="3.5" fill="#3C42B9" fill-opacity="0.1"/>
<circle cx="157.5" cy="173.5" r="3.5" fill="#3C42B9" fill-opacity="0.1"/>
<circle cx="157.5" cy="241.5" r="3.5" fill="#3C42B9" fill-opacity="0.1"/>
<circle cx="157.5" cy="20.5" r="3.5" fill="#3C42B9" fill-opacity="0.1"/>
<circle cx="157.5" cy="88.5" r="3.5" fill="#3C42B9" fill-opacity="0.1"/>
<circle cx="157.5" cy="156.5" r="3.5" fill="#3C42B9" fill-opacity="0.1"/>
<circle cx="157.5" cy="224.5" r="3.5" fill="#3C42B9" fill-opacity="0.1"/>
<circle cx="157.5" cy="54.5" r="3.5" fill="#3C42B9" fill-opacity="0.1"/>
<circle cx="157.5" cy="122.5" r="3.5" fill="#3C42B9" fill-opacity="0.1"/>
<circle cx="157.5" cy="190.5" r="3.5" fill="#3C42B9" fill-opacity="0.1"/>
<circle cx="157.5" cy="258.5" r="3.5" fill="#3C42B9" fill-opacity="0.1"/>
<circle cx="25.5" cy="3.5" r="3.5" fill="#3C42B9" fill-opacity="0.1"/>
<circle cx="25.5" cy="71.5" r="3.5" fill="#3C42B9" fill-opacity="0.1"/>
<circle cx="25.5" cy="139.5" r="3.5" fill="#3C42B9" fill-opacity="0.1"/>
<circle cx="25.5" cy="207.5" r="3.5" fill="#3C42B9" fill-opacity="0.1"/>
<circle cx="25.5" cy="37.5" r="3.5" fill="#3C42B9" fill-opacity="0.1"/>
<circle cx="25.5" cy="105.5" r="3.5" fill="#3C42B9" fill-opacity="0.1"/>
<circle cx="25.5" cy="173.5" r="3.5" fill="#3C42B9" fill-opacity="0.1"/>
<circle cx="25.5" cy="241.5" r="3.5" fill="#3C42B9" fill-opacity="0.1"/>
<circle cx="25.5" cy="20.5" r="3.5" fill="#3C42B9" fill-opacity="0.1"/>
<circle cx="25.5" cy="88.5" r="3.5" fill="#3C42B9" fill-opacity="0.1"/>
<circle cx="25.5" cy="156.5" r="3.5" fill="#3C42B9" fill-opacity="0.1"/>
<circle cx="25.5" cy="224.5" r="3.5" fill="#3C42B9" fill-opacity="0.1"/>
<circle cx="25.5" cy="54.5" r="3.5" fill="#3C42B9" fill-opacity="0.1"/>
<circle cx="25.5" cy="122.5" r="3.5" fill="#3C42B9" fill-opacity="0.1"/>
<circle cx="25.5" cy="190.5" r="3.5" fill="#3C42B9" fill-opacity="0.1"/>
<circle cx="25.5" cy="258.5" r="3.5" fill="#3C42B9" fill-opacity="0.1"/>
<circle cx="91.5" cy="3.5" r="3.5" fill="#3C42B9" fill-opacity="0.1"/>
<circle cx="91.5" cy="71.5" r="3.5" fill="#3C42B9" fill-opacity="0.1"/>
<circle cx="91.5" cy="139.5" r="3.5" fill="#3C42B9" fill-opacity="0.1"/>
<circle cx="91.5" cy="207.5" r="3.5" fill="#3C42B9" fill-opacity="0.1"/>
<circle cx="91.5" cy="37.5" r="3.5" fill="#3C42B9" fill-opacity="0.1"/>
<circle cx="91.5" cy="105.5" r="3.5" fill="#3C42B9" fill-opacity="0.1"/>
<circle cx="91.5" cy="173.5" r="3.5" fill="#3C42B9" fill-opacity="0.1"/>
<circle cx="91.5" cy="241.5" r="3.5" fill="#3C42B9" fill-opacity="0.1"/>
<circle cx="91.5" cy="20.5" r="3.5" fill="#3C42B9" fill-opacity="0.1"/>
<circle cx="91.5" cy="88.5" r="3.5" fill="#3C42B9" fill-opacity="0.1"/>
<circle cx="91.5" cy="156.5" r="3.5" fill="#3C42B9" fill-opacity="0.1"/>
<circle cx="91.5" cy="224.5" r="3.5" fill="#3C42B9" fill-opacity="0.1"/>
<circle cx="91.5" cy="54.5" r="3.5" fill="#3C42B9" fill-opacity="0.1"/>
<circle cx="91.5" cy="122.5" r="3.5" fill="#3C42B9" fill-opacity="0.1"/>
<circle cx="91.5" cy="190.5" r="3.5" fill="#3C42B9" fill-opacity="0.1"/>
<circle cx="91.5" cy="258.5" r="3.5" fill="#3C42B9" fill-opacity="0.1"/>
<circle cx="179.5" cy="3.5" r="3.5" fill="#3C42B9" fill-opacity="0.1"/>
<circle cx="179.5" cy="71.5" r="3.5" fill="#3C42B9" fill-opacity="0.1"/>
<circle cx="179.5" cy="139.5" r="3.5" fill="#3C42B9" fill-opacity="0.1"/>
<circle cx="179.5" cy="207.5" r="3.5" fill="#3C42B9" fill-opacity="0.1"/>
<circle cx="179.5" cy="37.5" r="3.5" fill="#3C42B9" fill-opacity="0.1"/>
<circle cx="179.5" cy="105.5" r="3.5" fill="#3C42B9" fill-opacity="0.1"/>
<circle cx="179.5" cy="173.5" r="3.5" fill="#3C42B9" fill-opacity="0.1"/>
<circle cx="179.5" cy="241.5" r="3.5" fill="#3C42B9" fill-opacity="0.1"/>
<circle cx="179.5" cy="20.5" r="3.5" fill="#3C42B9" fill-opacity="0.1"/>
<circle cx="179.5" cy="88.5" r="3.5" fill="#3C42B9" fill-opacity="0.1"/>
<circle cx="179.5" cy="156.5" r="3.5" fill="#3C42B9" fill-opacity="0.1"/>
<circle cx="179.5" cy="224.5" r="3.5" fill="#3C42B9" fill-opacity="0.1"/>
<circle cx="179.5" cy="54.5" r="3.5" fill="#3C42B9" fill-opacity="0.1"/>
<circle cx="179.5" cy="122.5" r="3.5" fill="#3C42B9" fill-opacity="0.1"/>
<circle cx="179.5" cy="190.5" r="3.5" fill="#3C42B9" fill-opacity="0.1"/>
<circle cx="179.5" cy="258.5" r="3.5" fill="#3C42B9" fill-opacity="0.1"/>
<circle cx="47.5" cy="3.5" r="3.5" fill="#3C42B9" fill-opacity="0.1"/>
<circle cx="47.5" cy="71.5" r="3.5" fill="#3C42B9" fill-opacity="0.1"/>
<circle cx="47.5" cy="139.5" r="3.5" fill="#3C42B9" fill-opacity="0.1"/>
<circle cx="47.5" cy="207.5" r="3.5" fill="#3C42B9" fill-opacity="0.1"/>
<circle cx="47.5" cy="37.5" r="3.5" fill="#3C42B9" fill-opacity="0.1"/>
<circle cx="47.5" cy="105.5" r="3.5" fill="#3C42B9" fill-opacity="0.1"/>
<circle cx="47.5" cy="173.5" r="3.5" fill="#3C42B9" fill-opacity="0.1"/>
<circle cx="47.5" cy="241.5" r="3.5" fill="#3C42B9" fill-opacity="0.1"/>
<circle cx="47.5" cy="20.5" r="3.5" fill="#3C42B9" fill-opacity="0.1"/>
<circle cx="47.5" cy="88.5" r="3.5" fill="#3C42B9" fill-opacity="0.1"/>
<circle cx="47.5" cy="156.5" r="3.5" fill="#3C42B9" fill-opacity="0.1"/>
<circle cx="47.5" cy="224.5" r="3.5" fill="#3C42B9" fill-opacity="0.1"/>
<circle cx="47.5" cy="54.5" r="3.5" fill="#3C42B9" fill-opacity="0.1"/>
<circle cx="47.5" cy="122.5" r="3.5" fill="#3C42B9" fill-opacity="0.1"/>
<circle cx="47.5" cy="190.5" r="3.5" fill="#3C42B9" fill-opacity="0.1"/>
<circle cx="47.5" cy="258.5" r="3.5" fill="#3C42B9" fill-opacity="0.1"/>
<circle cx="135.5" cy="3.5" r="3.5" fill="#3C42B9" fill-opacity="0.1"/>
<circle cx="135.5" cy="71.5" r="3.5" fill="#3C42B9" fill-opacity="0.1"/>
<circle cx="135.5" cy="139.5" r="3.5" fill="#3C42B9" fill-opacity="0.1"/>
<circle cx="135.5" cy="207.5" r="3.5" fill="#3C42B9" fill-opacity="0.1"/>
<circle cx="135.5" cy="37.5" r="3.5" fill="#3C42B9" fill-opacity="0.1"/>
<circle cx="135.5" cy="105.5" r="3.5" fill="#3C42B9" fill-opacity="0.1"/>
<circle cx="135.5" cy="173.5" r="3.5" fill="#3C42B9" fill-opacity="0.1"/>
<circle cx="135.5" cy="241.5" r="3.5" fill="#3C42B9" fill-opacity="0.1"/>
<circle cx="135.5" cy="20.5" r="3.5" fill="#3C42B9" fill-opacity="0.1"/>
<circle cx="135.5" cy="88.5" r="3.5" fill="#3C42B9" fill-opacity="0.1"/>
<circle cx="135.5" cy="156.5" r="3.5" fill="#3C42B9" fill-opacity="0.1"/>
<circle cx="135.5" cy="224.5" r="3.5" fill="#3C42B9" fill-opacity="0.1"/>
<circle cx="135.5" cy="54.5" r="3.5" fill="#3C42B9" fill-opacity="0.1"/>
<circle cx="135.5" cy="122.5" r="3.5" fill="#3C42B9" fill-opacity="0.1"/>
<circle cx="135.5" cy="190.5" r="3.5" fill="#3C42B9" fill-opacity="0.1"/>
<circle cx="135.5" cy="258.5" r="3.5" fill="#3C42B9" fill-opacity="0.1"/>
<circle cx="113.5" cy="3.5" r="3.5" fill="#3C42B9" fill-opacity="0.1"/>
<circle cx="113.5" cy="71.5" r="3.5" fill="#3C42B9" fill-opacity="0.1"/>
<circle cx="113.5" cy="139.5" r="3.5" fill="#3C42B9" fill-opacity="0.1"/>
<circle cx="113.5" cy="207.5" r="3.5" fill="#3C42B9" fill-opacity="0.1"/>
<circle cx="113.5" cy="37.5" r="3.5" fill="#3C42B9" fill-opacity="0.1"/>
<circle cx="113.5" cy="105.5" r="3.5" fill="#3C42B9" fill-opacity="0.1"/>
<circle cx="113.5" cy="173.5" r="3.5" fill="#3C42B9" fill-opacity="0.1"/>
<circle cx="113.5" cy="241.5" r="3.5" fill="#3C42B9" fill-opacity="0.1"/>
<circle cx="113.5" cy="20.5" r="3.5" fill="#3C42B9" fill-opacity="0.1"/>
<circle cx="113.5" cy="88.5" r="3.5" fill="#3C42B9" fill-opacity="0.1"/>
<circle cx="113.5" cy="156.5" r="3.5" fill="#3C42B9" fill-opacity="0.1"/>
<circle cx="113.5" cy="224.5" r="3.5" fill="#3C42B9" fill-opacity="0.1"/>
<circle cx="113.5" cy="54.5" r="3.5" fill="#3C42B9" fill-opacity="0.1"/>
<circle cx="113.5" cy="122.5" r="3.5" fill="#3C42B9" fill-opacity="0.1"/>
<circle cx="113.5" cy="190.5" r="3.5" fill="#3C42B9" fill-opacity="0.1"/>
<circle cx="113.5" cy="258.5" r="3.5" fill="#3C42B9" fill-opacity="0.1"/>
<circle cx="201.5" cy="3.5" r="3.5" fill="#3C42B9" fill-opacity="0.1"/>
<circle cx="201.5" cy="71.5" r="3.5" fill="#3C42B9" fill-opacity="0.1"/>
<circle cx="201.5" cy="139.5" r="3.5" fill="#3C42B9" fill-opacity="0.1"/>
<circle cx="201.5" cy="207.5" r="3.5" fill="#3C42B9" fill-opacity="0.1"/>
<circle cx="201.5" cy="37.5" r="3.5" fill="#3C42B9" fill-opacity="0.1"/>
<circle cx="201.5" cy="105.5" r="3.5" fill="#3C42B9" fill-opacity="0.1"/>
<circle cx="201.5" cy="173.5" r="3.5" fill="#3C42B9" fill-opacity="0.1"/>
<circle cx="201.5" cy="241.5" r="3.5" fill="#3C42B9" fill-opacity="0.1"/>
<circle cx="201.5" cy="20.5" r="3.5" fill="#3C42B9" fill-opacity="0.1"/>
<circle cx="201.5" cy="88.5" r="3.5" fill="#3C42B9" fill-opacity="0.1"/>
<circle cx="201.5" cy="156.5" r="3.5" fill="#3C42B9" fill-opacity="0.1"/>
<circle cx="201.5" cy="224.5" r="3.5" fill="#3C42B9" fill-opacity="0.1"/>
<circle cx="201.5" cy="54.5" r="3.5" fill="#3C42B9" fill-opacity="0.1"/>
<circle cx="201.5" cy="122.5" r="3.5" fill="#3C42B9" fill-opacity="0.1"/>
<circle cx="201.5" cy="190.5" r="3.5" fill="#3C42B9" fill-opacity="0.1"/>
<circle cx="201.5" cy="258.5" r="3.5" fill="#3C42B9" fill-opacity="0.1"/>
</svg>
