<svg width="16" height="16" fill="none" xmlns="http://www.w3.org/2000/svg"><path d="M15.2 1.867H.8a.8.8 0 00-.8.8v10.666a.8.8 0 00.8.8h14.4a.8.8 0 00.8-.8V2.667a.8.8 0 00-.8-.8zm.267 11.466c0 .148-.12.267-.267.267H.8a.267.267 0 01-.267-.267V2.667c0-.148.12-.267.267-.267h14.4c.147 0 .267.12.267.267v10.666z" fill="#3C42B9"/><path d="M14.69 2.934a.267.267 0 00-.195.062L8.343 8.164a.533.533 0 01-.686 0L1.505 2.996a.267.267 0 00-.343.408l6.152 5.168c.396.334.976.334 1.372 0l6.152-5.168a.266.266 0 00-.148-.47zM5.129 8.536a.267.267 0 00-.257.083l-3.734 4a.267.267 0 10.39.363l3.734-4a.267.267 0 00-.133-.446zm5.999.083a.267.267 0 10-.39.363l3.734 4a.267.267 0 00.39-.364l-3.734-4z" fill="#3C42B9"/></svg>