<svg width="16" height="16" viewBox="0 0 16 16" fill="none" xmlns="http://www.w3.org/2000/svg">
<path d="M15.2 1.8667H0.8C0.358188 1.8667 0 2.22486 0 2.6667V13.3334C0 13.7752 0.358156 14.1334 0.8 14.1334H15.2C15.6418 14.1334 16 13.7752 16 13.3334V2.6667C16 2.22489 15.6418 1.8667 15.2 1.8667ZM15.4667 13.3334C15.4667 13.4807 15.3473 13.6 15.2 13.6H0.8C0.652719 13.6 0.533344 13.4807 0.533344 13.3334V2.6667C0.533344 2.51942 0.652719 2.40004 0.8 2.40004H15.2C15.3473 2.40004 15.4667 2.51942 15.4667 2.6667V13.3334Z" fill="#3C42B9"/>
<path d="M14.6899 2.93414C14.6194 2.92798 14.5494 2.95007 14.4952 2.99557L8.34319 8.16354C8.14478 8.33032 7.85519 8.33032 7.65678 8.16354L1.50481 2.99554C1.43184 2.93429 1.33172 2.9166 1.24219 2.94917C1.15265 2.98173 1.08728 3.0596 1.07072 3.15345C1.05415 3.24729 1.0889 3.34282 1.16187 3.40407L7.31387 8.57179C7.71037 8.90564 8.28962 8.90564 8.68615 8.57179L14.8381 3.4041C14.8923 3.35864 14.9262 3.29351 14.9323 3.22304C14.9385 3.15257 14.9164 3.08254 14.8709 3.02839C14.8255 2.97417 14.7603 2.94029 14.6899 2.93414Z" fill="#3C42B9"/>
<path d="M5.12887 8.53571C5.03447 8.51464 4.93609 8.54633 4.87172 8.61852L1.13837 12.6185C1.07081 12.6877 1.046 12.7881 1.07356 12.8808C1.10112 12.9735 1.17672 13.044 1.27109 13.0651C1.3655 13.0861 1.46387 13.0544 1.52825 12.9822L5.26159 8.98224C5.32915 8.91305 5.35397 8.81267 5.3264 8.71999C5.29884 8.6273 5.22328 8.55677 5.12887 8.53571Z" fill="#3C42B9"/>
<path d="M11.1282 8.61852C11.0639 8.54633 10.9655 8.51464 10.8711 8.53571C10.7767 8.55677 10.7011 8.6273 10.6735 8.71999C10.646 8.81271 10.6708 8.91305 10.7383 8.98224L14.4717 12.9822C14.5729 13.0859 14.7384 13.0898 14.8444 12.9909C14.9504 12.8921 14.958 12.7267 14.8616 12.6185L11.1282 8.61852Z" fill="#3C42B9"/>
</svg>
