<svg width="38" height="38" viewBox="0 0 38 38" fill="none" xmlns="http://www.w3.org/2000/svg">
<g filter="url(#filter0_d)">
<circle cx="19" cy="17" r="15" fill="white"/>
<g clip-path="url(#clip0)">
<path d="M26.7261 11.8618C26.5804 10.4973 25.5028 9.41943 24.1382 9.27393C20.7161 8.90869 17.2839 8.90869 13.8619 9.27393C12.4973 9.41956 11.4196 10.4973 11.2739 11.8618C10.9087 15.2838 10.9087 18.7161 11.2739 22.1381C11.4196 23.5027 12.4973 24.5804 13.8618 24.7261C17.2838 25.0913 20.7161 25.0913 24.1382 24.7261C25.5028 24.5804 26.5804 23.5027 26.7261 22.1381C27.0913 18.7161 27.0913 15.2839 26.7261 11.8618Z" fill="url(#paint0_radial)"/>
<path d="M25.8559 12.4404C25.7267 11.2296 24.7704 10.2731 23.5595 10.1439C20.5229 9.81989 17.4772 9.81989 14.4406 10.1439C13.2298 10.2731 12.2734 11.2296 12.1441 12.4404C11.8201 15.477 11.8201 18.5226 12.1441 21.5591C12.2734 22.7701 13.2298 23.7265 14.4406 23.8557C17.4772 24.1797 20.5229 24.1797 23.5594 23.8557C24.7703 23.7265 25.7267 22.7701 25.8559 21.5591C26.18 18.5226 26.18 15.477 25.8559 12.4404Z" fill="url(#paint1_linear)"/>
<path d="M11.2397 21.8062C11.2507 21.9167 11.2621 22.0273 11.2739 22.1379C11.4196 23.5024 12.4973 24.5802 13.8619 24.7258C17.2839 25.0911 20.7162 25.0911 24.1382 24.7258C25.5028 24.5802 26.5804 23.5024 26.7261 22.1379C26.7379 22.0273 26.7493 21.9167 26.7604 21.8062H11.2397Z" fill="url(#paint2_linear)"/>
<path d="M26.7261 22.1384C26.9224 20.2997 27.0129 18.458 26.9983 16.6166L23.3411 12.9593C22.8842 12.4377 22.2168 12.1122 21.4326 12.084C19.8199 12.0259 18.2021 12.0288 16.5892 12.0842C15.2496 12.1303 14.3129 13.0307 14.0726 14.3541C14.0303 14.5877 14.0049 14.8244 13.9716 15.0598V18.9394C13.99 19.0652 14.0171 19.1903 14.0255 19.3167C14.0792 20.1217 14.41 20.8111 14.9397 21.2776L18.6614 24.9991C20.4878 25.0119 22.3143 24.9211 24.1382 24.7264C25.5028 24.5808 26.5804 23.503 26.7261 22.1384Z" fill="url(#paint3_linear)"/>
<path d="M26.7261 22.1382C26.5806 23.5026 25.5026 24.5806 24.1382 24.7261C22.3146 24.9207 20.4877 25.0116 18.6615 24.9988L14.9454 21.2827C15.3762 21.6598 15.9377 21.8894 16.5894 21.9139C18.2019 21.9745 19.8201 21.9729 21.4326 21.9148C22.8911 21.8621 23.9465 20.7826 23.9921 19.3241C24.0407 17.7755 24.0407 16.2229 23.9921 14.6743C23.9713 14.0015 23.7351 13.4094 23.3435 12.9614L26.9984 16.6163C27.0128 18.4575 26.9222 20.2994 26.7261 22.1382Z" fill="url(#paint4_linear)"/>
<path d="M20.8879 15.2672C20.4194 14.7571 19.7472 14.437 19 14.437C17.5847 14.437 16.4373 15.5845 16.4373 16.9998C16.4373 17.7469 16.7573 18.4192 17.2675 18.8877L23.1968 24.817C23.5106 24.7897 23.8245 24.7593 24.1381 24.7258C25.5027 24.5802 26.5804 23.5024 26.7261 22.1378C26.7595 21.8242 26.7899 21.5104 26.8173 21.1965L20.8879 15.2672Z" fill="url(#paint5_linear)"/>
<path d="M26.969 18.7233L22.197 13.9514C22.0857 13.8053 21.9103 13.7104 21.7124 13.7104C21.3757 13.7104 21.1027 13.9834 21.1027 14.3202C21.1027 14.5181 21.1975 14.6935 21.3436 14.8048L26.8837 20.345C26.9213 19.8046 26.9497 19.2639 26.969 18.7233Z" fill="url(#paint6_linear)"/>
<path d="M13.9716 15.0598C14.0049 14.8244 14.0303 14.5877 14.0726 14.3541C14.3127 13.0307 15.2496 12.1303 16.5892 12.0842C18.2021 12.0288 19.8199 12.0259 21.4326 12.084C22.8906 12.1365 23.9465 13.216 23.9921 14.6745C24.0405 16.2232 24.0405 17.7757 23.9921 19.3244C23.9465 20.7829 22.891 21.8624 21.4327 21.915C19.8201 21.9732 18.2019 21.9747 16.5894 21.9142C15.1311 21.8593 14.123 20.7773 14.0255 19.3166C14.0171 19.1903 13.99 19.065 13.9716 18.9393C13.9716 17.6461 13.9716 16.3529 13.9716 15.0598ZM19.0013 21.0506C19.7394 21.0506 20.4782 21.0727 21.2152 21.0455C22.3709 21.0027 23.0817 20.313 23.1086 19.1584C23.1421 17.7198 23.1421 16.2793 23.1086 14.8406C23.0817 13.6863 22.3704 12.9804 21.2152 12.9559C19.749 12.9249 18.2813 12.9251 16.8151 12.9559C15.6687 12.98 14.9558 13.6715 14.9247 14.8131C14.8851 16.2699 14.8851 17.7292 14.9247 19.186C14.9558 20.3275 15.6687 21.003 16.8152 21.0455C17.543 21.0726 18.2726 21.0506 19.0013 21.0506Z" fill="url(#paint7_linear)"/>
<path d="M13.9716 15.0598C14.0049 14.8244 14.0303 14.5877 14.0726 14.3541C14.3127 13.0307 15.2496 12.1303 16.5892 12.0842C18.2021 12.0288 19.8199 12.0259 21.4326 12.084C22.8906 12.1365 23.9465 13.216 23.9921 14.6745C24.0405 16.2232 24.0405 17.7757 23.9921 19.3244C23.9465 20.7829 22.891 21.8624 21.4327 21.915C19.8201 21.9732 18.2019 21.9747 16.5894 21.9142C15.1311 21.8593 14.123 20.7773 14.0255 19.3166C14.0171 19.1903 13.99 19.065 13.9716 18.9393C13.9716 17.6461 13.9716 16.3529 13.9716 15.0598ZM19.0013 21.0506C19.7394 21.0506 20.4782 21.0727 21.2152 21.0455C22.3709 21.0027 23.0817 20.313 23.1086 19.1584C23.1421 17.7198 23.1421 16.2793 23.1086 14.8406C23.0817 13.6863 22.3704 12.9804 21.2152 12.9559C19.749 12.9249 18.2813 12.9251 16.8151 12.9559C15.6687 12.98 14.9558 13.6715 14.9247 14.8131C14.8851 16.2699 14.8851 17.7292 14.9247 19.186C14.9558 20.3275 15.6687 21.003 16.8152 21.0455C17.543 21.0726 18.2726 21.0506 19.0013 21.0506Z" fill="white"/>
<path d="M19 14.438C17.5847 14.438 16.4373 15.5853 16.4373 17.0006C16.4373 18.416 17.5847 19.5634 19 19.5634C20.4154 19.5634 21.5627 18.416 21.5627 17.0006C21.5627 15.5853 20.4154 14.438 19 14.438ZM19 18.681C18.0719 18.681 17.3196 17.9287 17.3196 17.0006C17.3196 16.0725 18.0719 15.3202 19 15.3202C19.9281 15.3202 20.6804 16.0725 20.6804 17.0006C20.6804 17.9287 19.9281 18.681 19 18.681Z" fill="white"/>
<path d="M22.322 14.3207C22.322 14.6573 22.0491 14.9303 21.7124 14.9303C21.3757 14.9303 21.1027 14.6573 21.1027 14.3207C21.1027 13.9839 21.3757 13.7109 21.7124 13.7109C22.0491 13.7109 22.322 13.9839 22.322 14.3207Z" fill="white"/>
</g>
</g>
<defs>
<filter id="filter0_d" x="0" y="0" width="38" height="38" filterUnits="userSpaceOnUse" color-interpolation-filters="sRGB">
<feFlood flood-opacity="0" result="BackgroundImageFix"/>
<feColorMatrix in="SourceAlpha" type="matrix" values="0 0 0 0 0 0 0 0 0 0 0 0 0 0 0 0 0 0 127 0" result="hardAlpha"/>
<feOffset dy="2"/>
<feGaussianBlur stdDeviation="2"/>
<feColorMatrix type="matrix" values="0 0 0 0 0 0 0 0 0 0 0 0 0 0 0 0 0 0 0.25 0"/>
<feBlend mode="normal" in2="BackgroundImageFix" result="effect1_dropShadow"/>
<feBlend mode="normal" in="SourceGraphic" in2="effect1_dropShadow" result="shape"/>
</filter>
<radialGradient id="paint0_radial" cx="0" cy="0" r="1" gradientUnits="userSpaceOnUse" gradientTransform="translate(14.2799 22.9827) scale(17.6452)">
<stop stop-color="#FAE100"/>
<stop offset="0.0544" stop-color="#FADC04"/>
<stop offset="0.1167" stop-color="#FBCE0E"/>
<stop offset="0.1829" stop-color="#FCB720"/>
<stop offset="0.2514" stop-color="#FE9838"/>
<stop offset="0.3054" stop-color="#FF7950"/>
<stop offset="0.4922" stop-color="#FF1C74"/>
<stop offset="1" stop-color="#6C1CD1"/>
</radialGradient>
<linearGradient id="paint1_linear" x1="17.1367" y1="15.9517" x2="-9.96919" y2="0.704619" gradientUnits="userSpaceOnUse">
<stop stop-color="#A1B5D8" stop-opacity="0"/>
<stop offset="0.3094" stop-color="#90A2BD" stop-opacity="0.309804"/>
<stop offset="0.7554" stop-color="#7C8B9C" stop-opacity="0.756863"/>
<stop offset="1" stop-color="#748290"/>
</linearGradient>
<linearGradient id="paint2_linear" x1="19" y1="23.1237" x2="19" y2="25.6177" gradientUnits="userSpaceOnUse">
<stop stop-color="#FAE100" stop-opacity="0"/>
<stop offset="0.3068" stop-color="#FCA800" stop-opacity="0.305882"/>
<stop offset="0.6275" stop-color="#FE7300" stop-opacity="0.627451"/>
<stop offset="0.8685" stop-color="#FF5200" stop-opacity="0.866667"/>
<stop offset="1" stop-color="#FF4500"/>
</linearGradient>
<linearGradient id="paint3_linear" x1="18.0898" y1="16.0675" x2="14.13" y2="12.1077" gradientUnits="userSpaceOnUse">
<stop stop-color="#833AB4" stop-opacity="0"/>
<stop offset="1" stop-color="#833AB4"/>
</linearGradient>
<linearGradient id="paint4_linear" x1="21.9656" y1="23.634" x2="19.9892" y2="14.3168" gradientUnits="userSpaceOnUse">
<stop stop-color="#833AB4" stop-opacity="0"/>
<stop offset="1" stop-color="#833AB4"/>
</linearGradient>
<linearGradient id="paint5_linear" x1="22.7177" y1="20.7174" x2="14.7794" y2="12.7792" gradientUnits="userSpaceOnUse">
<stop stop-color="#833AB4" stop-opacity="0"/>
<stop offset="1" stop-color="#833AB4"/>
</linearGradient>
<linearGradient id="paint6_linear" x1="23.3065" y1="15.9142" x2="20.6814" y2="13.2892" gradientUnits="userSpaceOnUse">
<stop stop-color="#833AB4" stop-opacity="0"/>
<stop offset="1" stop-color="#833AB4"/>
</linearGradient>
<linearGradient id="paint7_linear" x1="22.1768" y1="13.8456" x2="15.7045" y2="20.318" gradientUnits="userSpaceOnUse">
<stop stop-color="#833AB4"/>
<stop offset="0.0922" stop-color="#9C3495"/>
<stop offset="0.2927" stop-color="#DC2546"/>
<stop offset="0.392" stop-color="#FD1D1D"/>
<stop offset="0.5589" stop-color="#FC6831"/>
<stop offset="0.6887" stop-color="#FC9B40"/>
<stop offset="0.7521" stop-color="#FCAF45"/>
<stop offset="0.7806" stop-color="#FDB750"/>
<stop offset="0.8656" stop-color="#FECB6A"/>
<stop offset="0.9415" stop-color="#FFD87A"/>
<stop offset="1" stop-color="#FFDC80"/>
</linearGradient>
<clipPath id="clip0">
<rect width="16" height="16" fill="white" transform="translate(11 9)"/>
</clipPath>
</defs>
</svg>
