<svg width="38" height="38" fill="none" xmlns="http://www.w3.org/2000/svg"><g filter="url(#filter0_d)"><circle cx="19" cy="17" r="15" fill="#fff"/><g clip-path="url(#clip0)"><path d="M26.726 11.862a2.913 2.913 0 00-2.588-2.588 48.326 48.326 0 00-10.276 0 2.913 2.913 0 00-2.588 2.588 48.33 48.33 0 000 10.276 2.914 2.914 0 002.588 2.588c3.422.365 6.854.365 10.276 0a2.913 2.913 0 002.588-2.588 48.33 48.33 0 000-10.276z" fill="url(#paint0_radial)"/><path d="M25.856 12.44a2.585 2.585 0 00-2.297-2.296 42.895 42.895 0 00-9.118 0 2.585 2.585 0 00-2.297 2.296 42.894 42.894 0 000 9.12 2.585 2.585 0 002.297 2.296c3.036.324 6.082.324 9.118 0a2.585 2.585 0 002.297-2.297 42.881 42.881 0 000-9.119z" fill="url(#paint1_linear)"/><path d="M11.24 21.806c.01.11.022.221.034.332a2.913 2.913 0 002.588 2.588c3.422.365 6.854.365 10.276 0a2.913 2.913 0 002.588-2.588l.034-.332H11.24z" fill="url(#paint2_linear)"/><path d="M26.726 22.138c.196-1.838.287-3.68.272-5.521l-3.657-3.658c-.457-.521-1.124-.847-1.908-.875a68.916 68.916 0 00-4.844 0c-1.34.046-2.276.947-2.516 2.27-.043.234-.068.47-.101.706v3.88c.018.125.045.25.053.377.054.805.385 1.494.915 1.96L18.66 25a48.374 48.374 0 005.477-.273 2.913 2.913 0 002.588-2.588z" fill="url(#paint3_linear)"/><path d="M26.726 22.138a2.913 2.913 0 01-2.588 2.588c-1.823.195-3.65.286-5.477.273l-3.716-3.716c.431.377.993.606 1.644.63 1.613.061 3.231.06 4.844.002 1.458-.053 2.514-1.132 2.56-2.59a74.163 74.163 0 000-4.65c-.022-.674-.258-1.266-.65-1.714l3.655 3.655a48.472 48.472 0 01-.272 5.522z" fill="url(#paint4_linear)"/><path d="M20.888 15.267a2.563 2.563 0 10-3.62 3.62l5.929 5.93c.314-.027.628-.058.941-.091a2.913 2.913 0 002.588-2.588c.034-.314.064-.628.091-.942l-5.93-5.929z" fill="url(#paint5_linear)"/><path d="M26.969 18.723l-4.772-4.772a.608.608 0 10-.853.854l5.54 5.54c.037-.54.066-1.081.085-1.622z" fill="url(#paint6_linear)"/><path d="M13.972 15.06c.033-.236.058-.472.1-.706.24-1.323 1.178-2.224 2.517-2.27a68.916 68.916 0 014.844 0c1.458.053 2.514 1.132 2.56 2.59a74.473 74.473 0 010 4.65c-.046 1.459-1.102 2.538-2.56 2.591-1.613.058-3.231.06-4.844 0-1.458-.056-2.466-1.138-2.563-2.598-.009-.127-.036-.252-.054-.378v-3.88zm5.03 5.99c.737 0 1.476.023 2.213-.005 1.156-.042 1.867-.732 1.894-1.887a94.136 94.136 0 000-4.317c-.027-1.155-.739-1.86-1.894-1.885a104.44 104.44 0 00-4.4 0c-1.146.024-1.86.716-1.89 1.857a80.496 80.496 0 000 4.373c.03 1.142.744 1.817 1.89 1.86.728.027 1.458.005 2.186.005z" fill="url(#paint7_linear)"/><path d="M13.972 15.06c.033-.236.058-.472.1-.706.24-1.323 1.178-2.224 2.517-2.27a68.916 68.916 0 014.844 0c1.458.053 2.514 1.132 2.56 2.59a74.473 74.473 0 010 4.65c-.046 1.459-1.102 2.538-2.56 2.591-1.613.058-3.231.06-4.844 0-1.458-.056-2.466-1.138-2.563-2.598-.009-.127-.036-.252-.054-.378v-3.88zm5.03 5.99c.737 0 1.476.023 2.213-.005 1.156-.042 1.867-.732 1.894-1.887a94.136 94.136 0 000-4.317c-.027-1.155-.739-1.86-1.894-1.885a104.44 104.44 0 00-4.4 0c-1.146.024-1.86.716-1.89 1.857a80.496 80.496 0 000 4.373c.03 1.142.744 1.817 1.89 1.86.728.027 1.458.005 2.186.005z" fill="#fff"/><path d="M19 14.438a2.563 2.563 0 100 5.125 2.563 2.563 0 000-5.125zm0 4.243a1.68 1.68 0 110-3.36 1.68 1.68 0 010 3.36zm3.322-4.361a.61.61 0 11-1.22 0 .61.61 0 011.22 0z" fill="#fff"/></g></g><defs><linearGradient id="paint1_linear" x1="17.137" y1="15.952" x2="-9.969" y2=".705" gradientUnits="userSpaceOnUse"><stop stop-color="#A1B5D8" stop-opacity="0"/><stop offset=".309" stop-color="#90A2BD" stop-opacity=".31"/><stop offset=".755" stop-color="#7C8B9C" stop-opacity=".757"/><stop offset="1" stop-color="#748290"/></linearGradient><linearGradient id="paint2_linear" x1="19" y1="23.124" x2="19" y2="25.618" gradientUnits="userSpaceOnUse"><stop stop-color="#FAE100" stop-opacity="0"/><stop offset=".307" stop-color="#FCA800" stop-opacity=".306"/><stop offset=".627" stop-color="#FE7300" stop-opacity=".627"/><stop offset=".869" stop-color="#FF5200" stop-opacity=".867"/><stop offset="1" stop-color="#FF4500"/></linearGradient><linearGradient id="paint3_linear" x1="18.09" y1="16.067" x2="14.13" y2="12.108" gradientUnits="userSpaceOnUse"><stop stop-color="#833AB4" stop-opacity="0"/><stop offset="1" stop-color="#833AB4"/></linearGradient><linearGradient id="paint4_linear" x1="21.966" y1="23.634" x2="19.989" y2="14.317" gradientUnits="userSpaceOnUse"><stop stop-color="#833AB4" stop-opacity="0"/><stop offset="1" stop-color="#833AB4"/></linearGradient><linearGradient id="paint5_linear" x1="22.718" y1="20.717" x2="14.779" y2="12.779" gradientUnits="userSpaceOnUse"><stop stop-color="#833AB4" stop-opacity="0"/><stop offset="1" stop-color="#833AB4"/></linearGradient><linearGradient id="paint6_linear" x1="23.306" y1="15.914" x2="20.681" y2="13.289" gradientUnits="userSpaceOnUse"><stop stop-color="#833AB4" stop-opacity="0"/><stop offset="1" stop-color="#833AB4"/></linearGradient><linearGradient id="paint7_linear" x1="22.177" y1="13.846" x2="15.704" y2="20.318" gradientUnits="userSpaceOnUse"><stop stop-color="#833AB4"/><stop offset=".092" stop-color="#9C3495"/><stop offset=".293" stop-color="#DC2546"/><stop offset=".392" stop-color="#FD1D1D"/><stop offset=".559" stop-color="#FC6831"/><stop offset=".689" stop-color="#FC9B40"/><stop offset=".752" stop-color="#FCAF45"/><stop offset=".781" stop-color="#FDB750"/><stop offset=".866" stop-color="#FECB6A"/><stop offset=".942" stop-color="#FFD87A"/><stop offset="1" stop-color="#FFDC80"/></linearGradient><radialGradient id="paint0_radial" cx="0" cy="0" r="1" gradientUnits="userSpaceOnUse" gradientTransform="translate(14.28 22.983) scale(17.6452)"><stop stop-color="#FAE100"/><stop offset=".054" stop-color="#FADC04"/><stop offset=".117" stop-color="#FBCE0E"/><stop offset=".183" stop-color="#FCB720"/><stop offset=".251" stop-color="#FE9838"/><stop offset=".305" stop-color="#FF7950"/><stop offset=".492" stop-color="#FF1C74"/><stop offset="1" stop-color="#6C1CD1"/></radialGradient><clipPath id="clip0"><path fill="#fff" transform="translate(11 9)" d="M0 0h16v16H0z"/></clipPath><filter id="filter0_d" x="0" y="0" width="38" height="38" filterUnits="userSpaceOnUse" color-interpolation-filters="sRGB"><feFlood flood-opacity="0" result="BackgroundImageFix"/><feColorMatrix in="SourceAlpha" values="0 0 0 0 0 0 0 0 0 0 0 0 0 0 0 0 0 0 127 0" result="hardAlpha"/><feOffset dy="2"/><feGaussianBlur stdDeviation="2"/><feColorMatrix values="0 0 0 0 0 0 0 0 0 0 0 0 0 0 0 0 0 0 0.25 0"/><feBlend in2="BackgroundImageFix" result="effect1_dropShadow"/><feBlend in="SourceGraphic" in2="effect1_dropShadow" result="shape"/></filter></defs></svg>