<svg width="95" height="95" fill="none" xmlns="http://www.w3.org/2000/svg"><circle cx="47.5" cy="47.5" r="47.5" fill="#B899F8"/><g clip-path="url(#clip0)" fill="#fff"><path d="M58.97 48.034a.789.789 0 00-1.089.245 12.778 12.778 0 01-2.267 2.685 14.315 14.315 0 00-4.162 6.514h-.587v-2.353a3.73 3.73 0 00-1.284-2.816v-4.376a5.475 5.475 0 001.247-2.894c.236-.126.42-.274.58-.402.275-.222.414-.334.767-.334a.789.789 0 100-1.577 2.41 2.41 0 00-1.448.446 5.46 5.46 0 00-2.922-3.694 1.519 1.519 0 00-1.357 0 5.458 5.458 0 00-2.923 3.694 2.41 2.41 0 00-1.448-.446.789.789 0 100 1.577c.353 0 .491.112.767.334.16.128.344.276.58.402a5.474 5.474 0 001.247 2.894v4.376a3.73 3.73 0 00-1.284 2.816v2.353H42.8a14.32 14.32 0 00-4.163-6.515 12.727 12.727 0 01-4.223-9.525 12.74 12.74 0 012.908-8.038.79.79 0 00-1.216-1.005 14.321 14.321 0 00-3.27 9.035 14.307 14.307 0 004.747 10.707 12.753 12.753 0 013.647 5.607c-.48.304-.802.84-.802 1.45v9.439c0 .946.77 1.715 1.716 1.715h.137a5.022 5.022 0 004.845 3.707 5.023 5.023 0 004.845-3.707h.137c.946 0 1.716-.769 1.716-1.715v-9.439c0-.61-.321-1.146-.802-1.45a12.75 12.75 0 013.646-5.606 14.346 14.346 0 002.547-3.016.789.789 0 00-.245-1.088zM42.006 63.183h10.24v1.856h-10.24v-1.856zm0-1.578v-2.411c0-.076.062-.138.138-.138h9.964c.076 0 .138.062.138.138v2.41h-10.24zm3.059-16.323c.622-.105 1.002-.41 1.293-.645.276-.222.415-.333.768-.333.353 0 .492.111.768.333.291.235.671.54 1.294.645a3.91 3.91 0 01-1.304 2.127 1.178 1.178 0 01-1.515 0 3.91 3.91 0 01-1.304-2.127zm2.061-4.378a3.89 3.89 0 012.086 2.74 2.213 2.213 0 01-.33-.236c-.357-.288-.847-.682-1.756-.682-.91 0-1.4.394-1.757.682a2.23 2.23 0 01-.329.235 3.89 3.89 0 012.086-2.74zm-.877 8.214a2.738 2.738 0 001.755 0v2.373a3.73 3.73 0 00-1.755 0v-2.373zm-1.284 6.007c0-1.191.97-2.16 2.161-2.16 1.192 0 2.161.969 2.161 2.16v2.353h-4.322v-2.353zm7.143 13.646h-3.895a.789.789 0 100 1.578h2.095a3.445 3.445 0 01-3.182 2.128 3.445 3.445 0 01-3.182-2.129h.692a.789.789 0 100-1.577h-2.492a.138.138 0 01-.138-.138v-2.017h10.24v2.017a.138.138 0 01-.138.138zm8.688-23.095c.412-1.348.62-2.753.62-4.175 0-7.88-6.41-14.29-14.29-14.29-2.974 0-5.823.902-8.24 2.609a.789.789 0 10.91 1.288 12.642 12.642 0 017.33-2.32c7.01 0 12.713 5.703 12.713 12.713 0 1.266-.186 2.516-.552 3.715a.789.789 0 001.51.46zm-13.67-21.359a.789.789 0 00.789-.789v-2.542a.789.789 0 10-1.578 0v2.542c0 .436.353.789.79.789zm15.054 2.578l-1.797 1.797a.789.789 0 101.115 1.116l1.798-1.798a.789.789 0 10-1.116-1.115zM32.754 56.321l-1.798 1.798a.789.789 0 001.116 1.115l1.797-1.797a.789.789 0 10-1.115-1.116zm36.451-14.045h-2.542a.789.789 0 100 1.578h2.542a.789.789 0 100-1.578zm-41.615 0h-2.543a.789.789 0 100 1.578h2.542a.789.789 0 100-1.578zm33.908 14.045a.789.789 0 10-1.115 1.116l1.797 1.797a.787.787 0 001.116 0 .789.789 0 000-1.115l-1.797-1.798zM32.754 29.808a.787.787 0 001.115 0 .789.789 0 000-1.116l-1.797-1.797a.789.789 0 10-1.116 1.115l1.798 1.798z"/></g><defs><clipPath id="clip0"><path fill="#fff" transform="translate(20.197 20.197)" d="M0 0h53.858v53.858H0z"/></clipPath></defs></svg>