<svg width="95" height="95" viewBox="0 0 95 95" fill="none" xmlns="http://www.w3.org/2000/svg">
<circle cx="47.5" cy="47.5" r="47.5" fill="#B899F8"/>
<g clip-path="url(#clip0)">
<path d="M58.9698 48.0338C58.6012 47.8009 58.1141 47.911 57.8814 48.2793C57.2524 49.2748 56.4896 50.178 55.6141 50.9638C53.6387 52.7366 52.2067 54.9821 51.4518 57.4783H50.8649V55.1252C50.8649 54.0028 50.3671 52.995 49.5815 52.3092V47.9331C50.2703 47.1121 50.7043 46.1086 50.8278 45.0391C51.0636 44.9133 51.2487 44.7648 51.4074 44.6371C51.6834 44.415 51.822 44.3035 52.1752 44.3035C52.6109 44.3035 52.9641 43.9503 52.9641 43.5146C52.9641 43.0789 52.6109 42.7257 52.1752 42.7257C51.5005 42.7257 51.0569 42.9428 50.7266 43.1724C50.3656 41.5823 49.3141 40.2252 47.8045 39.4785C47.3736 39.2654 46.8793 39.2653 46.4482 39.4784C44.9381 40.225 43.8863 41.5821 43.5253 43.1724C43.195 42.9428 42.7514 42.7256 42.0768 42.7256C41.6411 42.7256 41.2878 43.0788 41.2878 43.5145C41.2878 43.9502 41.6411 44.3034 42.0768 44.3034C42.4299 44.3034 42.5684 44.4149 42.8445 44.6369C43.0032 44.7646 43.1883 44.9132 43.4243 45.039C43.5478 46.1084 43.9818 47.1118 44.6706 47.9327V52.309C43.8849 52.9949 43.3872 54.0026 43.3872 55.1249V57.4781H42.8002C42.0453 54.982 40.6129 52.7362 38.6372 50.9628C35.9357 48.5379 34.3963 45.0663 34.4139 41.4381C34.428 38.5059 35.4608 35.6515 37.322 33.4005C37.5996 33.0647 37.5525 32.5674 37.2167 32.2897C36.8807 32.0121 36.3837 32.0592 36.1059 32.395C34.0131 34.926 32.8519 38.1348 32.836 41.4304C32.8163 45.5089 34.5466 49.4113 37.5833 52.1371C39.2928 53.6715 40.5447 55.6009 41.2304 57.7441C40.7494 58.0484 40.4283 58.5837 40.4283 59.1938V68.6326C40.4283 69.5786 41.198 70.3483 42.144 70.3483H42.2813C42.8669 72.5178 44.8454 74.0552 47.1261 74.0552C49.4057 74.0552 51.3851 72.5174 51.9709 70.3485H52.1082C53.0542 70.3485 53.8239 69.579 53.8239 68.6329V59.194C53.8239 58.5839 53.5027 58.0485 53.0216 57.7442C53.7072 55.6012 54.9588 53.6719 56.6679 52.138C57.6516 51.2553 58.5087 50.2406 59.2153 49.1221C59.4481 48.7538 59.3381 48.2664 58.9698 48.0338ZM42.0062 63.1828H52.2461V65.0386H42.0062V63.1828ZM42.0062 61.6049V59.194C42.0062 59.118 42.068 59.0562 42.144 59.0562H52.1083C52.1842 59.0562 52.2461 59.118 52.2461 59.194V61.6049H42.0062ZM45.0645 45.2817C45.6871 45.1768 46.0666 44.8717 46.3582 44.6371C46.6342 44.415 46.7726 44.3036 47.1258 44.3036C47.479 44.3036 47.6175 44.4151 47.8937 44.6372C48.1854 44.8718 48.565 45.1769 49.1876 45.2818C48.9988 46.1063 48.5466 46.854 47.8837 47.4092C47.4448 47.7768 46.8077 47.7767 46.3689 47.4093C45.7057 46.8541 45.2534 46.1063 45.0645 45.2817ZM47.1264 40.9036C48.228 41.4566 48.9826 42.4674 49.2123 43.6436C49.1086 43.5882 49.0103 43.5104 48.8828 43.4077C48.525 43.1199 48.0351 42.7258 47.1259 42.7258C46.2168 42.7258 45.7268 43.12 45.3691 43.4078C45.2418 43.5103 45.1434 43.588 45.0401 43.6434C45.2698 42.4672 46.0245 41.4565 47.1264 40.9036ZM46.2486 49.118C46.5331 49.2137 46.8295 49.2632 47.1263 49.2632C47.4229 49.2632 47.7192 49.2137 48.0037 49.1181V51.4913C47.722 51.4232 47.4284 51.3863 47.1262 51.3863C46.824 51.3863 46.5303 51.4233 46.2487 51.4913V49.118H46.2486ZM44.9651 55.1252C44.9651 53.9335 45.9346 52.9642 47.1261 52.9642C48.3176 52.9642 49.2871 53.9337 49.2871 55.1252V57.4783H44.965V55.1252H44.9651ZM52.1082 68.7707H48.213C47.7773 68.7707 47.4241 69.1239 47.4241 69.5596C47.4241 69.9953 47.7773 70.3485 48.213 70.3485H50.308C49.7864 71.6141 48.5406 72.4773 47.1261 72.4773C45.7108 72.4773 44.4656 71.6143 43.9439 70.3485H44.6365C45.0722 70.3485 45.4255 69.9953 45.4255 69.5596C45.4255 69.1239 45.0722 68.7707 44.6365 68.7707H42.144C42.068 68.7707 42.0062 68.7089 42.0062 68.6329V66.6164H52.2461V68.6329C52.246 68.7088 52.1841 68.7707 52.1082 68.7707Z" fill="white"/>
<path d="M60.7964 45.6763C61.2078 44.3282 61.4164 42.9233 61.4164 41.501C61.4164 33.6214 55.0059 27.2108 47.1263 27.2107C44.1524 27.2107 41.3027 28.1128 38.8854 29.8195C38.5294 30.0708 38.4446 30.5631 38.6959 30.919C38.9473 31.275 39.4397 31.3598 39.7955 31.1085C41.9452 29.5908 44.4801 28.7886 47.1264 28.7886C54.136 28.7887 59.8386 34.4914 59.8386 41.501C59.8386 42.7672 59.6532 44.017 59.2874 45.2158C59.1603 45.6325 59.395 46.0735 59.8117 46.2006C59.8884 46.224 59.9659 46.2352 60.0422 46.2352C60.3801 46.2352 60.6927 46.0163 60.7964 45.6763Z" fill="white"/>
<path d="M47.1261 24.317C47.5618 24.317 47.915 23.9637 47.915 23.528V20.9858C47.915 20.5501 47.5618 20.1969 47.1261 20.1969C46.6904 20.1969 46.3372 20.5501 46.3372 20.9858V23.528C46.3372 23.9637 46.6904 24.317 47.1261 24.317Z" fill="white"/>
<path d="M62.1803 26.8947L60.3827 28.6922C60.0746 29.0003 60.0746 29.4997 60.3827 29.8078C60.5367 29.9619 60.7387 30.0389 60.9405 30.0389C61.1424 30.0389 61.3444 29.9619 61.4984 29.8078L63.2959 28.0103C63.604 27.7022 63.604 27.2028 63.2959 26.8947C62.988 26.5865 62.4884 26.5865 62.1803 26.8947Z" fill="white"/>
<path d="M32.7537 56.3213L30.9562 58.1188C30.6481 58.4269 30.6481 58.9264 30.9562 59.2345C31.1102 59.3886 31.3121 59.4656 31.514 59.4656C31.7159 59.4656 31.9178 59.3886 32.0718 59.2345L33.8694 57.437C34.1775 57.1288 34.1775 56.6294 33.8694 56.3213C33.5614 56.0132 33.0618 56.0132 32.7537 56.3213Z" fill="white"/>
<path d="M69.2049 42.2758H66.6627C66.227 42.2758 65.8738 42.629 65.8738 43.0647C65.8738 43.5004 66.227 43.8536 66.6627 43.8536H69.2049C69.6406 43.8536 69.9938 43.5004 69.9938 43.0647C69.9938 42.629 69.6406 42.2758 69.2049 42.2758Z" fill="white"/>
<path d="M27.5894 42.2758H25.0472C24.6115 42.2758 24.2583 42.629 24.2583 43.0647C24.2583 43.5004 24.6115 43.8536 25.0472 43.8536H27.5894C28.0251 43.8536 28.3784 43.5004 28.3784 43.0647C28.3784 42.629 28.0251 42.2758 27.5894 42.2758Z" fill="white"/>
<path d="M61.4985 56.3213C61.1904 56.0132 60.6908 56.0132 60.3828 56.3213C60.0747 56.6294 60.0747 57.129 60.3828 57.437L62.1803 59.2345C62.3343 59.3885 62.5363 59.4656 62.7382 59.4656C62.94 59.4656 63.142 59.3886 63.296 59.2345C63.6041 58.9264 63.6041 58.4268 63.296 58.1188L61.4985 56.3213Z" fill="white"/>
<path d="M32.7537 29.808C32.9077 29.962 33.1097 30.0391 33.3115 30.0391C33.5134 30.0391 33.7154 29.9621 33.8694 29.808C34.1775 29.4999 34.1775 29.0003 33.8694 28.6923L32.0718 26.8948C31.7637 26.5867 31.2642 26.5867 30.9562 26.8948C30.6481 27.2029 30.6481 27.7024 30.9562 28.0104L32.7537 29.808Z" fill="white"/>
</g>
<defs>
<clipPath id="clip0">
<rect width="53.8583" height="53.8583" fill="white" transform="translate(20.1969 20.1969)"/>
</clipPath>
</defs>
</svg>
