<svg width="1803" height="304" fill="none" xmlns="http://www.w3.org/2000/svg"><path d="M111.239 301L0 0h111.239l47.986 111.239L198.486 0h50.166l-95.971 231.203-76.34-198.486H54.529l91.609 235.566h21.811L272.645 0h8.725l45.804 111.239L370.797 0H488.58L370.797 301h-85.065l-30.536-85.065 17.449-52.348 45.804 104.696h23.993l82.884-235.566h-21.812l-76.34 198.486-50.167-126.507L198.486 301h-87.247z" fill="url(#paint0_linear_777_21)"/><path d="M76.34 32.717H54.527l91.609 235.566h21.811L272.644 0h-23.993L152.68 231.203 76.34 32.717zm348.986 0h-21.811l-76.341 198.486-50.166-126.507L198.486 301h28.355l45.804-137.413 45.805 104.696h23.992l82.884-235.566zM514.383 301c-2.2 0-4-.7-5.4-2.1-1.4-1.4-2.1-3.2-2.1-5.4v-141c0-2.2.7-4 2.1-5.4 1.4-1.4 3.2-2.1 5.4-2.1h35.4c2 0 3.7.7 5.1 2.1 1.6 1.4 2.401 3.2 2.401 5.4v141c0 2.2-.801 4-2.401 5.4-1.4 1.4-3.1 2.1-5.1 2.1h-35.4zm-.3-178.5c-2.2 0-4-.7-5.4-2.1-1.4-1.4-2.1-3.2-2.1-5.4V88.3c0-2.2.7-4 2.1-5.4 1.4-1.6 3.2-2.4 5.4-2.4h35.7c2.2 0 4.001.8 5.401 2.4 1.6 1.4 2.399 3.2 2.399 5.4V115c0 2.2-.799 4-2.399 5.4-1.4 1.4-3.201 2.1-5.401 2.1h-35.7zM609.305 301c-2.2 0-4-.7-5.4-2.1-1.4-1.4-2.1-3.2-2.1-5.4v-141c0-2.2.7-4 2.1-5.4 1.4-1.4 3.2-2.1 5.4-2.1h34.5c2.2 0 4 .7 5.4 2.1 1.4 1.4 2.1 3.2 2.1 5.4v11.4c5.2-6.2 12-11.4 20.4-15.6 8.4-4.2 18.3-6.3 29.7-6.3 11.6 0 21.8 2.6 30.6 7.8 9 5.2 16 12.9 21 23.1 5.2 10 7.8 22.3 7.8 36.9v83.7c0 2.2-.8 4-2.4 5.4-1.4 1.4-3.1 2.1-5.1 2.1h-37.8c-2 0-3.8-.7-5.4-2.1-1.4-1.4-2.1-3.2-2.1-5.4v-81.9c0-9.4-2.3-16.6-6.9-21.6-4.4-5.2-11-7.8-19.8-7.8-8.2 0-14.8 2.6-19.8 7.8-4.8 5-7.2 12.2-7.2 21.6v81.9c0 2.2-.8 4-2.4 5.4-1.4 1.4-3.1 2.1-5.1 2.1h-37.5zm225.844 0c-3 0-5.2-.7-6.6-2.1-1.4-1.4-2.5-3.2-3.3-5.4l-43.2-138.9c-.4-1-.6-2-.6-3 0-1.8.7-3.3 2.1-4.5 1.4-1.4 3-2.1 4.8-2.1h30.9c2.6 0 4.6.7 6 2.1 1.6 1.4 2.6 2.8 3 4.2l25.2 85.8 27-85.5c.4-1.4 1.3-2.8 2.7-4.2 1.6-1.6 3.8-2.4 6.6-2.4h19.8c2.8 0 4.9.8 6.3 2.4 1.6 1.4 2.6 2.8 3 4.2l27 85.5 25.2-85.8c.4-1.4 1.3-2.8 2.7-4.2 1.6-1.4 3.7-2.1 6.3-2.1h30.901c1.8 0 3.3.7 4.5 2.1 1.4 1.2 2.1 2.7 2.1 4.5 0 1-.1 2-.3 3l-43.201 138.9c-.6 2.2-1.7 4-3.3 5.4-1.4 1.4-3.6 2.1-6.6 2.1h-27c-2.8 0-5-.7-6.6-2.1-1.6-1.4-2.7-3.2-3.3-5.4l-27.6-82.2-27.6 82.2c-.6 2.2-1.7 4-3.3 5.4-1.6 1.4-3.8 2.1-6.6 2.1h-27zm275.181 3c-23.6 0-42.4-6.4-56.4-19.2-14-12.8-21.3-31.8-21.9-57v-10.5c.6-15.8 4.1-29.3 10.5-40.5 6.6-11.4 15.6-20 27-25.8 11.6-6 25.1-9 40.5-9 17.6 0 32.1 3.5 43.5 10.5 11.6 7 20.3 16.5 26.1 28.5 5.8 12 8.7 25.7 8.7 41.1v7.2c0 2.2-.8 4-2.4 5.4-1.4 1.4-3.1 2.1-5.1 2.1h-96v2.1c.2 5.8 1.2 11.1 3 15.9 1.8 4.8 4.6 8.6 8.4 11.4 3.8 2.8 8.4 4.2 13.8 4.2 4 0 7.3-.6 9.9-1.8 2.8-1.4 5.1-2.9 6.9-4.5 1.8-1.8 3.2-3.3 4.2-4.5 1.8-2 3.2-3.2 4.2-3.6 1.2-.6 3-.9 5.4-.9h37.2c2 0 3.6.6 4.8 1.8 1.4 1 2 2.5 1.8 4.5-.2 3.4-1.9 7.5-5.1 12.3-3.2 4.8-7.9 9.6-14.1 14.4-6 4.6-13.6 8.4-22.8 11.4-9.2 3-19.9 4.5-32.1 4.5zm-25.5-96.9h50.7v-.6c0-6.4-1-12-3-16.8-1.8-4.8-4.7-8.5-8.7-11.1-3.8-2.6-8.4-3.9-13.8-3.9s-10 1.3-13.8 3.9c-3.6 2.6-6.4 6.3-8.4 11.1s-3 10.4-3 16.8v.6zm227.02 96.9c-11.2 0-20.6-1.9-28.2-5.7-7.4-3.8-13.5-8.6-18.3-14.4v9.6c0 2.2-.8 4-2.4 5.4-1.4 1.4-3.1 2.1-5.1 2.1h-33.9c-2.2 0-4-.7-5.4-2.1-1.4-1.4-2.1-3.2-2.1-5.4v-198c0-2.2.7-4 2.1-5.4 1.4-1.4 3.2-2.1 5.4-2.1h36.6c2.2 0 4 .7 5.4 2.1 1.4 1.4 2.1 3.2 2.1 5.4v64.2c4.8-5.2 10.8-9.4 18-12.6 7.4-3.4 16-5.1 25.8-5.1 10 0 18.8 1.7 26.4 5.1 7.8 3.2 14.4 7.9 19.8 14.1 5.4 6.2 9.6 13.6 12.6 22.2s4.7 18.3 5.1 29.1c.2 3.8.3 7.3.3 10.5 0 3-.1 6.5-.3 10.5-.4 11.2-2.2 21.2-5.4 30-3 8.6-7.2 16-12.6 22.2-5.4 6-11.9 10.6-19.5 13.8-7.6 3-16.4 4.5-26.4 4.5zm-16.2-40.2c6.8 0 12.1-1.4 15.9-4.2 3.8-2.8 6.5-6.6 8.1-11.4 1.8-4.8 2.9-10.1 3.3-15.9.4-6.2.4-12.4 0-18.6-.4-5.8-1.5-11.1-3.3-15.9-1.6-4.8-4.3-8.6-8.1-11.4-3.8-2.8-9.1-4.2-15.9-4.2-6.2 0-11.3 1.4-15.3 4.2-4 2.6-7 6.1-9 10.5-2 4.2-3.1 8.8-3.3 13.8-.2 3.8-.3 7.5-.3 11.1 0 3.6.1 7.4.3 11.4.2 5.4 1.2 10.4 3 15s4.7 8.4 8.7 11.4c4 2.8 9.3 4.2 15.9 4.2zm114.89 37.2c-2.2 0-4-.7-5.4-2.1-1.4-1.4-2.1-3.2-2.1-5.4v-38.1c0-2 .7-3.7 2.1-5.1 1.4-1.6 3.2-2.4 5.4-2.4h37.8c2.2 0 4 .8 5.4 2.4 1.6 1.4 2.4 3.1 2.4 5.1v38.1c0 2.2-.8 4-2.4 5.4-1.4 1.4-3.2 2.1-5.4 2.1h-37.8zm86.75 0c-2.2 0-4-.7-5.4-2.1-1.4-1.4-2.1-3.2-2.1-5.4v-198c0-2.2.7-4 2.1-5.4 1.4-1.4 3.2-2.1 5.4-2.1h34.8c2 0 3.7.7 5.1 2.1 1.6 1.4 2.4 3.2 2.4 5.4V196l41.7-45.9c1.2-1.4 2.5-2.6 3.9-3.6s3.4-1.5 6-1.5h40.2c1.8 0 3.3.7 4.5 2.1 1.4 1.2 2.1 2.7 2.1 4.5 0 .8-.2 1.7-.6 2.7-.4 1-1 1.8-1.8 2.4l-54 58.2 61.5 74.7c1.6 1.6 2.4 3.2 2.4 4.8 0 1.8-.7 3.4-2.1 4.8-1.2 1.2-2.8 1.8-4.8 1.8h-41.1c-3 0-5.2-.5-6.6-1.5-1.4-1.2-2.7-2.4-3.9-3.6l-47.4-57v54.6c0 2.2-.8 4-2.4 5.4-1.4 1.4-3.1 2.1-5.1 2.1h-34.8zm168.9 0c-2 0-3.8-.7-5.4-2.1-1.4-1.4-2.1-3.2-2.1-5.4v-23.4c0-2.2.4-4.1 1.2-5.7 1-1.6 2.2-3.1 3.6-4.5l70.2-76.2h-64.8c-2.2 0-4.1-.7-5.7-2.1-1.4-1.4-2.1-3.2-2.1-5.4v-23.7c0-2.2.7-4 2.1-5.4 1.6-1.4 3.5-2.1 5.7-2.1h120.6c2 0 3.7.7 5.1 2.1 1.6 1.4 2.4 3.2 2.4 5.4V178c0 1.8-.4 3.4-1.2 4.8-.8 1.4-1.8 2.8-3 4.2l-68.4 75.3h71.1c2.2 0 4 .7 5.4 2.1 1.4 1.4 2.1 3.2 2.1 5.4v23.7c0 2.2-.7 4-2.1 5.4-1.4 1.4-3.2 2.1-5.4 2.1h-129.3z" fill="#fff"/><defs><linearGradient id="paint0_linear_777_21" x1="244.29" y1="0" x2="244.29" y2="301" gradientUnits="userSpaceOnUse"><stop stop-color="#FF0069"/><stop offset="1" stop-color="#060169"/></linearGradient></defs></svg>