<svg width="17" height="17" fill="none" xmlns="http://www.w3.org/2000/svg"><path d="M14.67 8.589h-.867c0-2.83-2.301-5.13-5.13-5.13v-.866a6.001 6.001 0 015.997 5.996zm-5.997-4.5v.865a3.636 3.636 0 013.633 3.634h.867c0-2.48-2.017-4.5-4.5-4.5zM8.5 0C3.813 0 0 3.813 0 8.5 0 13.188 3.813 17 8.5 17a.523.523 0 100-1.05c-4.11 0-7.451-3.342-7.451-7.45 0-4.108 3.341-7.45 7.451-7.45 4.11 0 7.45 3.343 7.45 7.452 0 1.716-.913 3.418-2.22 4.139-.476.261-.991.39-1.54.396.33-.196.615-.462.827-.796.042-.063.097-.118.124-.187.17-.41.186-.876.289-1.31.126-.554-2.424-1.636-2.646-.944-.08.256-.203 1.066-.364 1.28-.143.19-.496.1-.716-.088-.582-.496-1.23-1.224-1.8-1.8h.001l-.048-.048-.048-.048v.001c-.576-.57-1.304-1.217-1.8-1.8-.187-.22-.277-.573-.087-.716.214-.162 1.024-.283 1.28-.364.69-.22-.39-2.773-.946-2.646-.433.102-.898.118-1.309.288-.07.03-.124.083-.187.125-1.456.923-1.644 3.165-.222 4.835a39.4 39.4 0 001.688 1.862l-.003.002.05.046.045.05.004-.003c.603.582 1.319 1.439 2.481 2.214 2.448 1.635 4.326 1.178 5.432.572 1.91-1.053 2.765-3.3 2.765-5.059C17 3.813 13.187 0 8.5 0z" fill="#3C42B9"/></svg>