<svg width="37" height="37" fill="none" xmlns="http://www.w3.org/2000/svg"><g clip-path="url(#clip0)" fill="#3C42B9"><path d="M26.515 1.421L6.118.025C5.453-.02 4.876.496 4.832 1.176l-.16 2.442h-2.71c-.667 0-1.209.554-1.209 1.236v30.057c0 .682.542 1.236 1.208 1.236h15.613c.135 0 .27-.056.365-.154l2.357-2.401c.024.005.048.01.074.011l4.023.275c.642.044 1.243-.49 1.286-1.15l1.96-29.99c.045-.674-.466-1.272-1.124-1.317zm-8.423 32.914v-3.68c0-.098.077-.177.172-.177h3.583l-3.755 3.857zm6.554-1.678c-.017.106-.078.161-.184.164l-3.195-.219 2.192-2.233a.536.536 0 00.153-.375V4.854c0-.682-.542-1.236-1.208-1.236h-5.385c-.67 0-.67 1.06 0 1.06h5.385c.095 0 .172.079.172.176v24.564h-4.312c-.666 0-1.208.555-1.208 1.236v4.434H1.961a.175.175 0 01-.172-.177V4.854c0-.097.077-.177.172-.177h12.3c.67 0 .67-1.06 0-1.06h-8.55l.154-2.37c.017-.106.078-.161.184-.164l20.397 1.396c.104.017.157.08.16.188l-1.96 29.99z"/><path d="M19.244 16.746H5.122a.524.524 0 00-.518.53c0 .293.232.53.518.53h14.122a.524.524 0 00.517-.53.524.524 0 00-.517-.53zm0 3.694H5.122a.524.524 0 00-.518.53c0 .292.232.53.518.53h14.122a.524.524 0 00.517-.53.524.524 0 00-.517-.53zm-14.64-6.858c0 .293.232.53.518.53h14.122a.524.524 0 00.517-.53.524.524 0 00-.517-.53H5.122a.524.524 0 00-.518.53zm2.487-3.693c0 .292.232.53.518.53h9.147a.524.524 0 00.518-.53.524.524 0 00-.518-.53H7.609a.524.524 0 00-.518.53zm7.108 21.109a2365.265 2365.265 0 01-3.733.007c-.567 0-.95-.116-1.076-.754-.108-.54-.854-.467-.999 0-.358 1.154-.95.702-1.283-.075-.33-.774-.416-1.64-.56-2.465-.107-.606-1.002-.436-1.018.14-.02.76-.09 1.508-.278 2.244-.194.76-.485 1.49-.775 2.217-.252.633.75.905.999.282.256-.644.513-1.29.704-1.958.355.873 1.089 1.86 2.135 1.279.195-.109.376-.263.536-.442.544.643 1.354.592 2.111.591a2327.6 2327.6 0 003.237-.006c.666-.002.667-1.062 0-1.06zM35.344 17.08a1.472 1.472 0 00-1.015-.426l-.391.002V15.9c0-.461-.268-.948-.651-1.191V13.64c0-2.195-3.34-2.185-3.34.01v1.067a1.41 1.41 0 00-.653 1.19v.777c-1.723.12-1.728 2.808.002 2.913.011 2.371.01 4.704-.002 7.116-.003.665 1.032.704 1.036.006.012-2.414.013-4.75.002-7.123l2.569-.013-.003 11.358c0 1.72-2.57 1.731-2.57-.017v-.967c.041-.683-.992-.747-1.033-.063v.906c0 .777.235 1.436.69 1.898a4.48 4.48 0 001.268 2.964c.221.225.527.156.742-.012a4.42 4.42 0 001.254-2.997c.342-.348.684-.699.684-1.9v-4.829c.896.261 1.83-.448 1.83-1.409V18.11c0-.39-.15-.757-.42-1.032zm-5.014-.405v-.766a.34.34 0 01.247-.328l2.073-.01a.325.325 0 01.154.087c.063.064.098.15.098.241v.763l-2.572.013zM31.619 13c.318 0 .632.319.632.64v.86l-1.268.006v-.855c0-.357.285-.65.636-.65zm0 21.47a3.417 3.417 0 01-.513-1.16 2.243 2.243 0 001.026-.013 3.342 3.342 0 01-.514 1.172zm3.108-9.955c0 .502-.79.542-.79.01v-5.474a.527.527 0 00-.52-.53l-4.032.02c-.5 0-.488-.8.005-.803l4.944-.025c.24.02.37.153.393.397v6.405z"/></g><defs><clipPath id="clip0"><path fill="#fff" transform="translate(.753)" d="M0 0h35.348v36.17H0z"/></clipPath></defs></svg>