<svg width="35" height="35" viewBox="0 0 35 35" fill="none" xmlns="http://www.w3.org/2000/svg">
<g clip-path="url(#clip0)">
<path d="M33.1916 17.2082H29.1666V6.70825C29.1646 5.09825 27.8599 3.79354 26.2499 3.79163H8.74988C7.13988 3.79354 5.83517 5.09825 5.83319 6.70832V10.2083H2.63301C1.17942 10.2099 0.0014502 11.3879 -0.00012207 12.8415V28.5751C0.0014502 30.0287 1.17942 31.2067 2.63301 31.2082H11.95C13.0601 31.2049 14.0486 30.5046 14.4198 29.4582H24.4999C24.8221 29.4582 25.0832 29.1971 25.0832 28.8749V27.7082C25.0832 26.7418 24.2997 25.9582 23.3332 25.9582H21.5832V23.6249H26.2499V29.3999C26.2499 30.3987 27.0595 31.2082 28.0582 31.2082H33.1915C34.1902 31.2082 34.9998 30.3986 34.9998 29.3999V19.0166C34.9999 18.0179 34.1902 17.2082 33.1916 17.2082ZM13.4166 28.5751C13.416 29.3848 12.7597 30.0409 11.9501 30.0416H2.63301C1.82336 30.041 1.16718 29.3848 1.1665 28.5751V28.2916H13.4165V28.5751H13.4166ZM13.4166 27.1249H1.16657V14.2916H13.4166V27.1249ZM13.4166 13.1249H1.16657V12.8415C1.16718 12.0318 1.82343 11.3756 2.63308 11.3749H11.9501C12.7597 11.3756 13.4159 12.0318 13.4166 12.8415V13.1249ZM23.3332 27.1249C23.6554 27.1249 23.9165 27.3861 23.9165 27.7082V28.2916H14.5832V27.1249H23.3332ZM14.5832 25.9582V23.6249H20.4165V25.9582H14.5832ZM26.2499 22.4582H20.9999H14.5832V20.7082H26.2499V22.4582ZM26.2499 19.0166V19.5416H14.5832V12.8415C14.5815 11.3879 13.4036 10.2099 11.9501 10.2083H6.99988V6.70832C6.99988 5.74185 7.78334 4.95832 8.74988 4.95832H26.2499C27.2163 4.95832 27.9999 5.74178 27.9999 6.70832V17.2141C27.0263 17.2455 26.2525 18.0425 26.2499 19.0166ZM33.8332 29.3999C33.8332 29.7543 33.5459 30.0416 33.1915 30.0416H28.0582C27.7038 30.0416 27.4165 29.7543 27.4165 29.3999V28.8749H33.8332V29.3999ZM33.8332 27.7082H27.4165V20.7082H33.8332V27.7082ZM33.8332 19.5416H27.4165V19.0166C27.4165 18.6623 27.7038 18.3749 28.0582 18.3749H33.1915C33.5459 18.3749 33.8332 18.6623 33.8332 19.0166V19.5416Z" fill="#3C42B9"/>
</g>
<defs>
<clipPath id="clip0">
<rect width="35" height="35" fill="white" transform="translate(-0.00012207)"/>
</clipPath>
</defs>
</svg>
