<svg width="35" height="35" viewBox="0 0 35 35" fill="none" xmlns="http://www.w3.org/2000/svg">
<path d="M8.46326 7.17773H24.4969C25.9425 7.17773 27.1185 8.35837 27.1185 9.80957V16.8202C27.1185 17.1034 27.348 17.3329 27.6312 17.3329C27.9143 17.3329 28.1439 17.1034 28.1439 16.8202V9.80957C28.1439 7.79297 26.5079 6.15234 24.4969 6.15234H8.46326C8.18011 6.15234 7.95056 6.38183 7.95056 6.66504C7.95056 6.94825 8.18011 7.17773 8.46326 7.17773Z" fill="#3C42B9"/>
<path d="M20.9424 23.0068H11.2743C11.1238 23.0068 10.981 23.0729 10.8836 23.1876L7.9785 26.607L5.0735 23.1875C4.97608 23.0728 4.83321 23.0067 4.68275 23.0067H3.6469C2.20138 23.0067 1.02539 21.8261 1.02539 20.3749V9.80957C1.02539 8.35837 2.20138 7.17773 3.6469 7.17773H6.0859C6.36904 7.17773 6.59859 6.94825 6.59859 6.66504C6.59859 6.38183 6.36904 6.15234 6.0859 6.15234H3.6469C1.63598 6.15234 0 7.79297 0 9.80957V20.3749C0 22.3915 1.63598 24.0321 3.6469 24.0321H4.44561L7.58782 27.7307C7.68523 27.8454 7.82811 27.9115 7.97856 27.9115C8.12902 27.9115 8.27189 27.8454 8.36931 27.7307L11.5115 24.0321H20.9424C21.2256 24.0321 21.4551 23.8027 21.4551 23.5195C21.4551 23.2362 21.2256 23.0068 20.9424 23.0068Z" fill="#3C42B9"/>
<path d="M15.1298 30.5791H10.4688C10.1857 30.5791 9.95613 30.8086 9.95613 31.0918C9.95613 31.375 10.1857 31.6045 10.4688 31.6045H15.1298C15.7812 31.6045 16.3111 32.136 16.3111 32.7895C16.3111 33.4429 15.7812 33.9746 15.1298 33.9746H2.20664C1.55531 33.9746 1.02539 33.4429 1.02539 32.7895C1.02539 32.136 1.55531 31.6045 2.20664 31.6045H2.66021C2.82468 31.6045 2.97917 31.5256 3.07556 31.3923L3.96648 30.1613L4.85741 31.3923C4.9538 31.5255 5.10829 31.6045 5.27276 31.6045H8.09819C8.38134 31.6045 8.61089 31.375 8.61089 31.0918C8.61089 30.8086 8.38134 30.5791 8.09819 30.5791H5.53458L4.38184 28.9862C4.28545 28.853 4.13096 28.774 3.96648 28.774C3.80201 28.774 3.64752 28.8529 3.55113 28.9862L2.39839 30.5791H2.20664C0.989912 30.5791 0 31.5707 0 32.7895C0 34.0083 0.989912 34.9999 2.20664 34.9999H15.1298C16.3466 34.9999 17.3365 34.0083 17.3365 32.7895C17.3365 31.5707 16.3466 30.5791 15.1298 30.5791Z" fill="#3C42B9"/>
<path d="M19.8692 4.42087H21.7979C22.081 4.42087 22.3106 4.19139 22.3106 3.90817C22.3106 3.62496 22.081 3.39548 21.7979 3.39548H19.8692C19.2179 3.39548 18.688 2.86392 18.688 2.21047C18.688 1.55702 19.2179 1.02539 19.8692 1.02539H32.7924C33.4438 1.02539 33.9737 1.55695 33.9737 2.2104C33.9737 2.86385 33.4438 3.39548 32.7924 3.39548H32.3389C32.1744 3.39548 32.0199 3.47437 31.9235 3.6076L31.0326 4.83868L30.1417 3.60753C30.0453 3.47437 29.8908 3.39541 29.7263 3.39541H24.1686C23.8854 3.39541 23.6559 3.62489 23.6559 3.90811C23.6559 4.19132 23.8854 4.4208 24.1686 4.4208H29.4645L30.6172 6.01371C30.7136 6.14687 30.8681 6.22583 31.0326 6.22583C31.1971 6.22583 31.3516 6.14694 31.4479 6.01371L32.6007 4.4208H32.7924C34.0092 4.4208 34.9991 3.42918 34.9991 2.21033C34.9991 0.991621 34.0092 0 32.7924 0H19.8692C18.6525 0 17.6626 0.991621 17.6626 2.21047C17.6626 3.42925 18.6525 4.42087 19.8692 4.42087Z" fill="#3C42B9"/>
<path d="M7.50964 17.3589C7.2265 17.3589 6.99695 17.5884 6.99695 17.8716C6.99695 18.1548 7.2265 18.3843 7.50964 18.3843H10.244C10.5271 18.3843 10.7566 18.1548 10.7566 17.8716V15.1372C10.7566 14.854 10.5271 14.6245 10.244 14.6245H8.02234V12.9155H10.244C10.5271 12.9155 10.7566 12.686 10.7566 12.4028C10.7566 12.1196 10.5271 11.8901 10.244 11.8901H7.50964C7.2265 11.8901 6.99695 12.1196 6.99695 12.4028V15.1372C6.99695 15.4204 7.2265 15.6499 7.50964 15.6499H9.73125V17.3589H7.50964Z" fill="#3C42B9"/>
<path d="M15.3708 12.9155C15.6539 12.9155 15.8835 12.686 15.8835 12.4028C15.8835 12.1196 15.6539 11.8901 15.3708 11.8901H12.6365C12.3533 11.8901 12.1238 12.1196 12.1238 12.4028V17.8716C12.1238 18.1548 12.3533 18.3843 12.6365 18.3843H15.3708C15.6539 18.3843 15.8835 18.1548 15.8835 17.8716C15.8835 17.5884 15.6539 17.3589 15.3708 17.3589H13.1492V15.6499H15.3708C15.6539 15.6499 15.8835 15.4204 15.8835 15.1372C15.8835 14.854 15.6539 14.6245 15.3708 14.6245H13.1492V12.9155H15.3708Z" fill="#3C42B9"/>
<path d="M17.7633 11.8901C17.4802 11.8901 17.2506 12.1196 17.2506 12.4028V17.8716C17.2506 18.1548 17.4802 18.3843 17.7633 18.3843H20.4976C20.7808 18.3843 21.0103 18.1548 21.0103 17.8716V12.4028C21.0103 12.1196 20.7808 11.8901 20.4976 11.8901H17.7633ZM19.9849 17.3589H18.276V12.9155H19.9849V17.3589Z" fill="#3C42B9"/>
<path d="M34.9991 23.6006C34.9991 23.3485 34.8157 23.1339 34.5668 23.0945L33.8594 22.9822L33.5217 22.1674L33.9424 21.5871C34.0904 21.3831 34.068 21.1018 33.8898 20.9236L32.4418 19.4758C32.2634 19.2974 31.9818 19.2752 31.7778 19.4236L31.1988 19.8446L30.3843 19.5073L30.2717 18.7997C30.2322 18.5507 30.0174 18.3676 29.7654 18.3676H29.7652L27.7182 18.3684C27.4661 18.3684 27.2513 18.5519 27.212 18.801L27.0999 19.5089L26.2862 19.8466L25.7066 19.4259C25.5024 19.2777 25.2209 19.3 25.0427 19.4785L23.5958 20.9274C23.4177 21.1057 23.3956 21.3871 23.5437 21.5909L23.9646 22.1706L23.6273 22.9861L22.9204 23.0987C22.6715 23.1384 22.4883 23.3531 22.4884 23.6052L22.4892 25.6536C22.4893 25.9057 22.6727 26.1203 22.9217 26.1597L23.629 26.2719L23.9666 27.0867L23.5459 27.667C23.398 27.871 23.4203 28.1523 23.5985 28.3305L25.0464 29.7784C25.2247 29.9566 25.5063 29.9789 25.7104 29.8305L26.2895 29.4096L27.1038 29.7469L27.2164 30.4545C27.2561 30.7035 27.4707 30.8866 27.7228 30.8866H27.723L29.77 30.8857C30.0221 30.8856 30.2367 30.7022 30.2761 30.4532L30.3882 29.7451L31.202 29.4075L31.7816 29.8283C31.9857 29.9765 32.2673 29.9541 32.4455 29.7756L33.8925 28.3268C34.0705 28.1485 34.0926 27.8672 33.9446 27.6633L33.5237 27.0835L33.8609 26.2681L34.5678 26.1555C34.8168 26.1158 35 25.901 34.9999 25.649L34.9991 23.6006ZM33.4163 25.3006C33.2402 25.3287 33.0914 25.4462 33.0232 25.611L32.4667 26.9567C32.3986 27.1214 32.4209 27.3096 32.5255 27.4538L32.858 27.9117L32.0296 28.7412L31.572 28.4091C31.4276 28.3043 31.2391 28.2821 31.0743 28.3504L29.7303 28.9081C29.5656 28.9764 29.4483 29.1254 29.4205 29.3015L29.3319 29.8607L28.1604 29.8612L28.0715 29.3025C28.0434 29.1264 27.926 28.9775 27.7612 28.9093L26.4165 28.3525C26.3533 28.3263 26.2867 28.3135 26.2203 28.3135C26.1136 28.3135 26.0079 28.3468 25.9188 28.4115L25.4618 28.7438L24.6329 27.9149L24.9652 27.4565C25.0698 27.3122 25.0919 27.1239 25.0237 26.9593L24.4665 25.6143C24.3982 25.4496 24.2493 25.3321 24.0732 25.3043L23.5146 25.2157L23.5141 24.0426L24.0723 23.9536C24.2484 23.9256 24.3973 23.808 24.4654 23.6433L25.0219 22.2975C25.09 22.1329 25.0677 21.9446 24.9629 21.8004L24.6305 21.3426L25.4589 20.5131L25.9165 20.8452C26.0609 20.9501 26.2495 20.9722 26.4141 20.9038L27.7582 20.3461C27.9228 20.2778 28.0401 20.1288 28.068 19.9527L28.1565 19.3936L29.328 19.3931L29.4169 19.9519C29.4449 20.1279 29.5624 20.2768 29.7271 20.345L31.0719 20.9018C31.2368 20.9701 31.4252 20.9477 31.5695 20.8428L32.0266 20.5106L32.8555 21.3395L32.5232 21.7978C32.4186 21.9421 32.3965 22.1304 32.4647 22.295L33.022 23.6399C33.0903 23.8047 33.2393 23.9221 33.4154 23.95L33.974 24.0386L33.9745 25.2117L33.4163 25.3006Z" fill="#3C42B9"/>
<path d="M30.9209 24.1143C30.6378 24.1143 30.4082 24.3438 30.4082 24.627C30.4082 25.5446 29.6617 26.2911 28.7442 26.2911C27.8267 26.2911 27.0802 25.5446 27.0802 24.627C27.0802 23.7094 27.8267 22.963 28.7442 22.963C28.9845 22.963 29.2162 23.0129 29.4327 23.1115C29.6904 23.2289 29.9944 23.115 30.1117 22.8573C30.229 22.5995 30.1152 22.2955 29.8575 22.1782C29.5067 22.0185 29.1321 21.9375 28.7442 21.9375C27.2613 21.9375 26.0548 23.144 26.0548 24.627C26.0548 26.11 27.2613 27.3164 28.7442 27.3164C30.2271 27.3164 31.4336 26.11 31.4336 24.627C31.4336 24.3438 31.2041 24.1143 30.9209 24.1143Z" fill="#3C42B9"/>
</svg>
