<svg width="35" height="35" fill="none" xmlns="http://www.w3.org/2000/svg"><path d="M32.266 3.828H2.734A2.19 2.19 0 00.547 6.016v18.593a2.19 2.19 0 002.187 2.188h11.273l-.73 2.187h-1.793a.547.547 0 00-.546.547v1.094H6.016a.547.547 0 100 1.094h24.062a.547.547 0 000-1.094h-6.015v-1.094a.546.546 0 00-.547-.547h-1.793l-.73-2.187h11.273a2.19 2.19 0 002.187-2.188V6.016a2.19 2.19 0 00-2.187-2.188zm-9.297 26.25v.547H12.03v-.547h10.94zm-8.538-1.094l.73-2.187h4.679l.73 2.187h-6.14zm18.928-4.375a1.096 1.096 0 01-1.093 1.094H2.734a1.095 1.095 0 01-1.093-1.094v-1.093h31.718v1.093zM9.821 17.5l-.206 4.922h-.637L8.773 17.5h1.048zm-.973-1.094l.365-2.187h.167l.365 2.187h-.897zm.449-3.281c-.593 0-1.094-.751-1.094-1.64 0-.562.573-1.377 1.093-1.952.468.52 1.095 1.35 1.095 1.951 0 .89-.501 1.641-1.094 1.641zm5.951-1.094l.065.13v.417h-2.188v-.418l.064-.129h2.06zm-1.512-1.094l.483-.964.482.964h-.965zm1.576 2.735v8.681c0 .023.002.046.005.069H13.12a.559.559 0 00.005-.069v-8.681h2.188zm4.922-2.188h1.641v1.094h-.547a.547.547 0 000 1.094h.547v1.094h-1.64a.547.547 0 100 1.093h1.64v1.094h-.547a.547.547 0 000 1.094h.547v1.094h-1.64a.547.547 0 100 1.093h1.64v2.188h-3.828V9.297h3.828v1.094h-1.64a.547.547 0 100 1.093zm6.563 6.563v4.306c0 .023.002.046.005.069h-2.197a.559.559 0 00.004-.069v-4.306h2.188zm-2.188-1.094v-.418l1.094-2.187 1.094 2.187v.418h-2.188zm8.75 5.469h-5.473a.559.559 0 00.005-.069v-5.947a.553.553 0 00-.058-.244l-1.64-3.282a.548.548 0 00-.98 0l-1.64 3.281a.554.554 0 00-.057.245v5.948c0 .022.001.045.004.068h-.551V8.75a.547.547 0 00-.547-.547H17.5a.547.547 0 00-.547.547v13.672h-.552a.58.58 0 00.005-.069V12.032a.551.551 0 00-.057-.245l-1.64-3.28a.548.548 0 00-.98 0l-1.64 3.28a.553.553 0 00-.058.245v10.322c0 .023.002.046.005.069H10.71l.227-5.446v-.054a.526.526 0 00-.007-.058v-.001l-.506-3.036c.635-.48 1.06-1.35 1.06-2.343 0-1.405-1.629-2.962-1.815-3.135a.548.548 0 00-.745 0c-.186.173-1.815 1.73-1.815 3.135 0 .993.426 1.864 1.06 2.343l-.505 3.036v.001a.546.546 0 00-.007.058v.054l.227 5.446H1.64V6.016a1.095 1.095 0 011.093-1.094h29.532a1.095 1.095 0 011.093 1.094v16.406z" fill="#3C42B9"/><path d="M6.563 24.063H3.28a.547.547 0 100 1.093h3.281a.547.547 0 100-1.093zm2.187 0h-.547a.547.547 0 100 1.093h.547a.547.547 0 100-1.093zm5.469-9.844a.547.547 0 00-.547.547v6.015a.547.547 0 101.094 0v-6.015a.547.547 0 00-.547-.547zm11.484 4.375a.547.547 0 00-.547.547v1.64a.547.547 0 001.094 0v-1.64a.547.547 0 00-.547-.547zM3.281 7.11h4.375a.547.547 0 000-1.094H3.281a.547.547 0 000 1.093zm0 1.64h1.094a.547.547 0 000-1.094H3.281a.547.547 0 000 1.094zm26.25 12.578h2.188a.546.546 0 100-1.094H29.53a.546.546 0 100 1.094zm1.641-1.64h.547a.546.546 0 100-1.094h-.547a.547.547 0 100 1.093z" fill="#3C42B9"/></svg>