<svg width="35" height="35" fill="none" xmlns="http://www.w3.org/2000/svg"><path d="M8.463 7.178h16.034a2.63 2.63 0 012.622 2.632v7.01a.513.513 0 101.025 0V9.81a3.656 3.656 0 00-3.647-3.658H8.463a.513.513 0 100 1.026zm12.479 15.829h-9.668a.512.512 0 00-.39.18l-2.905 3.42-2.905-3.42a.513.513 0 00-.391-.18H3.647a2.63 2.63 0 01-2.622-2.632V9.81a2.63 2.63 0 012.622-2.632h2.439a.513.513 0 100-1.026h-2.44A3.656 3.656 0 000 9.81v10.565a3.656 3.656 0 003.647 3.657h.799l3.142 3.699a.513.513 0 00.781 0l3.143-3.699h9.43a.513.513 0 100-1.025zM15.13 30.58h-4.661a.513.513 0 000 1.025h4.66a1.184 1.184 0 010 2.37H2.208a1.185 1.185 0 010-2.37h.453a.513.513 0 00.416-.213l.89-1.23.891 1.23a.513.513 0 00.416.213h2.825a.513.513 0 100-1.026H5.535l-1.153-1.593a.513.513 0 00-.83 0L2.397 30.58h-.191a2.211 2.211 0 000 4.42H15.13a2.211 2.211 0 000-4.42zm4.74-26.16h1.928a.513.513 0 100-1.025h-1.929a1.184 1.184 0 010-2.37h12.923a1.184 1.184 0 010 2.37h-.453a.513.513 0 00-.415.213l-.891 1.23-.891-1.23a.513.513 0 00-.416-.213H24.17a.513.513 0 100 1.026h5.296l1.152 1.593a.513.513 0 00.83 0l1.154-1.593h.191a2.211 2.211 0 000-4.421H19.87a2.211 2.211 0 000 4.42z" fill="#3C42B9"/><path d="M7.51 17.359a.513.513 0 100 1.025h2.734c.283 0 .513-.23.513-.512v-2.735a.513.513 0 00-.513-.513H8.022v-1.709h2.222a.513.513 0 000-1.025H7.51a.513.513 0 00-.513.513v2.734c0 .283.23.513.513.513h2.22v1.709H7.51zm7.86-4.444a.513.513 0 000-1.025h-2.733a.513.513 0 00-.513.513v5.469c0 .283.23.512.512.512h2.735a.513.513 0 000-1.025h-2.222v-1.71h2.222a.513.513 0 000-1.024h-2.222v-1.71h2.222zm2.393-1.025a.513.513 0 00-.512.513v5.469c0 .283.23.512.512.512h2.735c.283 0 .512-.23.512-.512v-5.47a.513.513 0 00-.512-.512h-2.735zm2.222 5.469h-1.709v-4.444h1.709v4.444zM35 23.6a.512.512 0 00-.433-.506l-.708-.112-.337-.815.42-.58a.513.513 0 00-.052-.663l-1.448-1.448a.513.513 0 00-.664-.052l-.58.42-.814-.337-.112-.707a.513.513 0 00-.507-.432h-2.047a.513.513 0 00-.506.433l-.112.708-.814.338-.58-.421a.513.513 0 00-.663.053l-1.447 1.448a.513.513 0 00-.052.664l.42.58-.337.815-.707.113a.513.513 0 00-.432.506l.001 2.049c0 .252.184.466.433.506l.707.112.338.815-.421.58a.513.513 0 00.053.663l1.447 1.448c.179.179.46.2.664.053l.58-.421.814.337.112.707c.04.25.255.433.507.433l2.047-.001a.513.513 0 00.506-.433l.112-.708.814-.338.58.421a.513.513 0 00.664-.052l1.447-1.45a.512.512 0 00.052-.663l-.421-.58.337-.815.707-.113A.513.513 0 0035 25.65v-2.048zm-1.584 1.7a.513.513 0 00-.393.311l-.556 1.346a.513.513 0 00.059.497l.332.458-.828.83-.458-.333a.513.513 0 00-.498-.059l-1.344.558a.512.512 0 00-.31.393l-.088.56H28.16l-.088-.559a.513.513 0 00-.31-.393l-1.346-.556a.512.512 0 00-.497.058l-.457.333-.83-.83.333-.458a.513.513 0 00.059-.497l-.558-1.345a.512.512 0 00-.393-.31l-.558-.088v-1.173l.557-.09a.513.513 0 00.393-.31l.557-1.346a.512.512 0 00-.06-.497l-.331-.457.828-.83.457.332a.512.512 0 00.498.059l1.344-.558a.513.513 0 00.31-.393l.088-.56h1.172l.089.559a.513.513 0 00.31.393l1.345.557a.513.513 0 00.498-.06l.457-.331.828.829-.332.458a.513.513 0 00-.058.497l.557 1.345a.513.513 0 00.393.31l.559.089v1.173l-.558.089z" fill="#3C42B9"/><path d="M30.92 24.114a.513.513 0 00-.512.513c0 .918-.746 1.664-1.664 1.664a1.666 1.666 0 01-1.664-1.664 1.666 1.666 0 012.353-1.515.513.513 0 10.425-.934 2.693 2.693 0 00-3.803 2.449 2.692 2.692 0 002.69 2.69 2.692 2.692 0 002.689-2.69.513.513 0 00-.513-.513z" fill="#3C42B9"/></svg>