<svg width="35" height="35" fill="none" xmlns="http://www.w3.org/2000/svg"><path d="M19.824 35h-4.648a1.369 1.369 0 01-1.367-1.367v-2.041a14.441 14.441 0 01-3.662-1.518l-1.444 1.444a1.37 1.37 0 01-1.934 0L3.482 28.23a1.369 1.369 0 010-1.934l1.444-1.444a14.442 14.442 0 01-1.518-3.662h-2.04A1.369 1.369 0 010 19.824v-4.648c0-.754.613-1.367 1.367-1.367h2.037A14.441 14.441 0 014.92 10.14L3.482 8.702a1.369 1.369 0 010-1.933L6.77 3.482a1.369 1.369 0 011.934 0l1.433 1.433a14.44 14.44 0 013.673-1.524V1.367C13.81.613 14.423 0 15.177 0h4.648c.754 0 1.367.613 1.367 1.367v2.02a14.45 14.45 0 013.68 1.522l1.427-1.427a1.369 1.369 0 011.933 0l3.287 3.287a1.37 1.37 0 010 1.934L30.09 10.13a14.447 14.447 0 011.523 3.679h2.019c.754 0 1.367.613 1.367 1.367v4.648c0 .754-.613 1.367-1.367 1.367h-2.024a14.449 14.449 0 01-1.525 3.673l1.434 1.433a1.37 1.37 0 010 1.934l-3.287 3.287a1.37 1.37 0 01-1.934 0L24.86 30.08a14.451 14.451 0 01-3.668 1.517v2.036c0 .754-.613 1.367-1.367 1.367zm-9.78-6.474c.128 0 .255.035.368.107 1.301.83 2.723 1.42 4.228 1.753.313.07.536.347.536.668v2.579h4.648v-2.575c0-.321.223-.6.537-.668a13.1 13.1 0 004.234-1.75.683.683 0 01.85.093l1.82 1.818 3.286-3.287-1.814-1.814a.683.683 0 01-.093-.852 13.098 13.098 0 001.76-4.238.683.683 0 01.667-.536h2.562v-4.648h-2.558a.683.683 0 01-.668-.537 13.09 13.09 0 00-1.757-4.244.684.684 0 01.093-.851l1.808-1.808-3.287-3.287-1.808 1.808a.684.684 0 01-.85.093 13.096 13.096 0 00-4.245-1.757.683.683 0 01-.537-.668V1.367h-4.648V3.93c0 .32-.223.598-.536.667a13.096 13.096 0 00-4.238 1.76.683.683 0 01-.851-.093L7.736 4.45 4.449 7.736l1.818 1.819c.227.226.266.58.094.85a13.1 13.1 0 00-1.751 4.234.684.684 0 01-.668.537H1.367v4.648h2.58c.32 0 .597.223.667.536a13.092 13.092 0 001.753 4.228.684.684 0 01-.093.851L4.45 27.264l3.287 3.287 1.825-1.825a.684.684 0 01.484-.2z" fill="#3C42B9"/><path d="M17.5 27.476a9.95 9.95 0 01-7.057-2.919c-3.892-3.891-3.892-10.223 0-14.114a9.89 9.89 0 015.755-2.839 10.05 10.05 0 016.18 1.187.683.683 0 11-.668 1.192c-3.348-1.877-7.583-1.29-10.3 1.427-3.359 3.358-3.359 8.822 0 12.18a8.589 8.589 0 006.09 2.52c2.206 0 4.411-.84 6.09-2.52a8.603 8.603 0 001.618-9.939.684.684 0 111.223-.61 9.968 9.968 0 01-1.874 11.516 9.95 9.95 0 01-7.057 2.919z" fill="#3C42B9"/><path d="M24.223 11.759a.687.687 0 01-.484-1.167.688.688 0 01.968 0c.127.127.2.303.2.483a.687.687 0 01-.684.684zm-7.688 10.777a.683.683 0 01-.483-.2l-4.323-4.324a.683.683 0 010-.966l2.452-2.452a.683.683 0 01.967 0l1.387 1.387 3.317-3.317a.683.683 0 01.967 0l2.452 2.453c.267.266.267.7 0 .966l-6.252 6.253a.685.685 0 01-.484.2zm-3.356-5.007l3.356 3.356 5.286-5.285-1.485-1.485-3.317 3.317a.684.684 0 01-.967 0l-1.388-1.388-1.485 1.485z" fill="#3C42B9"/></svg>