<svg width="35" height="35" viewBox="0 0 35 35" fill="none" xmlns="http://www.w3.org/2000/svg">
<path d="M6.01562 22.4219H11.4844C12.3889 22.4219 13.125 21.6858 13.125 20.7812C13.125 19.8767 12.3889 19.1406 11.4844 19.1406H6.01562C5.11109 19.1406 4.375 19.8767 4.375 20.7812C4.375 21.6858 5.11109 22.4219 6.01562 22.4219ZM6.01562 20.2344H11.4844C11.7863 20.2344 12.0312 20.4794 12.0312 20.7812C12.0312 21.0831 11.7863 21.3281 11.4844 21.3281H6.01562C5.71375 21.3281 5.46875 21.0831 5.46875 20.7812C5.46875 20.4794 5.71375 20.2344 6.01562 20.2344Z" fill="#3C42B9"/>
<path d="M32.8125 12.5781C33.717 12.5781 34.4531 11.842 34.4531 10.9375V2.1875C34.4531 1.28297 33.717 0.546875 32.8125 0.546875H28.9844C28.4703 0.546875 27.9798 0.792422 27.6724 1.20312L26.5234 2.73438H21.875C20.9705 2.73438 20.2344 3.47047 20.2344 4.375V6.5625H15.2846C15.0052 3.19977 12.1844 0.546875 8.75 0.546875C5.13133 0.546875 2.1875 3.4907 2.1875 7.10938C2.1875 10.5432 4.83984 13.3645 8.20312 13.644V16.9652C3.80297 17.0887 0.546875 18.6856 0.546875 20.7812V31.1719C0.546875 33.303 4.77367 34.4531 8.75 34.4531C12.7263 34.4531 16.9531 33.303 16.9531 31.1719V27.8906H20.2623C20.5434 31.5552 23.6086 34.4531 27.3438 34.4531C31.2638 34.4531 34.4531 31.2638 34.4531 27.3438C34.4531 23.6086 31.5552 20.5434 27.8906 20.2623V12.5781H32.8125ZM32.8125 11.4844H21.875C21.5731 11.4844 21.3281 11.2388 21.3281 10.9375V6.01562H33.3594V10.9375C33.3594 11.2388 33.1144 11.4844 32.8125 11.4844ZM21.875 3.82812H27.0703L28.5474 1.85883C28.6497 1.72211 28.8132 1.64062 28.9844 1.64062H32.8125C33.1144 1.64062 33.3594 1.88617 33.3594 2.1875V4.92188H21.3281V4.375C21.3281 4.07367 21.5731 3.82812 21.875 3.82812ZM3.28125 7.10938C3.28125 6.53789 3.37039 5.98719 3.53336 5.46875H5.63391C5.53273 5.97953 5.46875 6.52422 5.46875 7.10938C5.46875 7.69453 5.53273 8.23922 5.63445 8.75H3.53336C3.37039 8.23156 3.28125 7.68086 3.28125 7.10938ZM6.5625 7.10938C6.5625 6.5193 6.63797 5.97406 6.75609 5.46875H10.7461C10.8631 5.97352 10.9375 6.51875 10.9375 7.10938C10.9375 7.69945 10.862 8.24469 10.7439 8.75H6.75391C6.63688 8.24523 6.5625 7.7 6.5625 7.10938ZM8.75109 1.84352C9.17602 2.27555 9.90172 3.13797 10.4016 4.375H7.10172C7.60266 3.14125 8.32781 2.27719 8.75109 1.84352ZM10.3983 9.84375C9.89734 11.078 9.17219 11.9421 8.74891 12.3752C8.32398 11.9432 7.59828 11.0808 7.09844 9.84375H10.3983ZM11.5757 9.84375H13.4788C12.7668 11.0698 11.5948 11.9924 10.1987 12.3774C10.6772 11.7605 11.2082 10.9129 11.5757 9.84375ZM14.2188 7.10938C14.2188 7.68086 14.1302 8.23156 13.9666 8.75H11.8661C11.9673 8.23922 12.0312 7.69453 12.0312 7.10938C12.0312 6.52422 11.9673 5.97953 11.8655 5.46875H13.9661C14.1302 5.98719 14.2188 6.53789 14.2188 7.10938ZM13.4788 4.375H11.5757C11.2082 3.30586 10.6772 2.4582 10.1987 1.84133C11.5948 2.22633 12.7668 3.14891 13.4788 4.375ZM7.30133 1.84133C6.82281 2.4582 6.2918 3.30586 5.9243 4.375H4.02117C4.7332 3.14891 5.90516 2.22633 7.30133 1.84133ZM4.02117 9.84375H5.9243C6.2918 10.9129 6.82281 11.7605 7.30133 12.3774C5.90516 11.9924 4.7332 11.0698 4.02117 9.84375ZM8.75 18.0469C12.9396 18.0469 15.8594 19.4879 15.8594 20.7812C15.8594 22.0746 12.9396 23.5156 8.75 23.5156C4.56039 23.5156 1.64062 22.0746 1.64062 20.7812C1.64062 19.4879 4.56039 18.0469 8.75 18.0469ZM1.64062 22.7407C3.03187 23.8749 5.63172 24.6094 8.75 24.6094C11.8683 24.6094 14.4681 23.8749 15.8594 22.7407V24.6094C15.8594 25.5013 13.09 26.7969 8.75 26.7969C4.41 26.7969 1.64062 25.5013 1.64062 24.6094V22.7407ZM1.64062 26.3085C3.15383 27.3448 6.0107 27.8906 8.75 27.8906C11.4893 27.8906 14.3462 27.3448 15.8594 26.3085V27.8906C15.8594 28.7826 13.09 30.0781 8.75 30.0781C4.41 30.0781 1.64062 28.7826 1.64062 27.8906V26.3085ZM8.75 33.3594C4.41 33.3594 1.64062 32.0638 1.64062 31.1719V29.5898C3.15383 30.6261 6.0107 31.1719 8.75 31.1719C11.4893 31.1719 14.3462 30.6261 15.8594 29.5898V31.1719C15.8594 32.0638 13.09 33.3594 8.75 33.3594ZM23.1602 31.6575C23.6605 30.0732 25.1092 28.9844 26.7969 28.9844H27.8906C29.5794 28.9844 31.028 30.0732 31.5273 31.6575C30.4434 32.7086 28.9691 33.3594 27.3438 33.3594C25.7184 33.3594 24.2441 32.7086 23.1602 31.6575ZM27.3438 27.8906C26.1373 27.8906 25.1562 26.9095 25.1562 25.7031C25.1562 24.4967 26.1373 23.5156 27.3438 23.5156C28.5502 23.5156 29.5312 24.4967 29.5312 25.7031C29.5312 26.9095 28.5502 27.8906 27.3438 27.8906ZM33.3594 27.3438C33.3594 28.5852 32.9809 29.7396 32.3345 30.6988C31.7685 29.499 30.7486 28.589 29.5099 28.1619C30.1919 27.5598 30.625 26.682 30.625 25.7031C30.625 23.8935 29.1534 22.4219 27.3438 22.4219C25.5341 22.4219 24.0625 23.8935 24.0625 25.7031C24.0625 26.682 24.4956 27.5598 25.1781 28.1619C23.9395 28.5895 22.9201 29.4995 22.3535 30.6988C21.7066 29.7396 21.3281 28.5852 21.3281 27.3438C21.3281 24.027 24.027 21.3281 27.3438 21.3281C30.6605 21.3281 33.3594 24.027 33.3594 27.3438ZM26.7969 20.2623C23.3133 20.5291 20.5291 23.3133 20.2623 26.7969H16.9531V20.7812C16.9531 18.6856 13.697 17.0887 9.29688 16.9652V13.644C12.4791 13.3793 15.0205 10.8385 15.2846 7.65625H20.2344V10.9375C20.2344 11.842 20.9705 12.5781 21.875 12.5781H26.7969V20.2623Z" fill="#3C42B9"/>
<path d="M31.1719 2.73438H32.2656V3.82812H31.1719V2.73438Z" fill="#3C42B9"/>
<path d="M28.9844 2.73438H30.0781V3.82812H28.9844V2.73438Z" fill="#3C42B9"/>
<path d="M22.4219 9.29688H23.5156V10.3906H22.4219V9.29688Z" fill="#3C42B9"/>
<path d="M24.6094 9.29688H25.7031V10.3906H24.6094V9.29688Z" fill="#3C42B9"/>
<path d="M26.7969 9.29688H27.8906V10.3906H26.7969V9.29688Z" fill="#3C42B9"/>
<path d="M9.29688 6.5625H10.3906V7.65625H9.29688V6.5625Z" fill="#3C42B9"/>
<path d="M7.10938 6.5625H8.20312V7.65625H7.10938V6.5625Z" fill="#3C42B9"/>
</svg>
