<svg width="35" height="35" viewBox="0 0 35 35" fill="none" xmlns="http://www.w3.org/2000/svg">
<path d="M32.2656 3.82812H2.73438C2.15445 3.82888 1.59849 4.0596 1.18842 4.46967C0.778347 4.87974 0.547635 5.4357 0.546875 6.01562V24.6094C0.547635 25.1893 0.778347 25.7453 1.18842 26.1553C1.59849 26.5654 2.15445 26.7961 2.73438 26.7969H14.0068L13.2774 28.9844H11.4844C11.3393 28.9844 11.2002 29.042 11.0977 29.1446C10.9951 29.2471 10.9375 29.3862 10.9375 29.5312V30.625H6.01562C5.87058 30.625 5.73148 30.6826 5.62893 30.7852C5.52637 30.8877 5.46875 31.0268 5.46875 31.1719C5.46875 31.3169 5.52637 31.456 5.62893 31.5586C5.73148 31.6611 5.87058 31.7188 6.01562 31.7188H30.0781C30.2232 31.7188 30.3623 31.6611 30.4648 31.5586C30.5674 31.456 30.625 31.3169 30.625 31.1719C30.625 31.0268 30.5674 30.8877 30.4648 30.7852C30.3623 30.6826 30.2232 30.625 30.0781 30.625H24.0625V29.5312C24.0625 29.3862 24.0049 29.2471 23.9023 29.1446C23.7998 29.042 23.6607 28.9844 23.5156 28.9844H21.7226L20.9932 26.7969H32.2656C32.8456 26.7961 33.4015 26.5654 33.8116 26.1553C34.2217 25.7453 34.4524 25.1893 34.4531 24.6094V6.01562C34.4524 5.4357 34.2217 4.87974 33.8116 4.46967C33.4015 4.0596 32.8456 3.82888 32.2656 3.82812ZM22.9688 30.0781V30.625H12.0312V30.0781H22.9688ZM14.4307 28.9844L15.1601 26.7969H19.8399L20.5693 28.9844H14.4307ZM33.3594 24.6094C33.359 24.8993 33.2436 25.1773 33.0386 25.3824C32.8336 25.5874 32.5556 25.7027 32.2656 25.7031H2.73438C2.44441 25.7027 2.16643 25.5874 1.9614 25.3824C1.75636 25.1773 1.641 24.8993 1.64062 24.6094V23.5156H33.3594V24.6094ZM9.82051 17.5L9.61543 22.4219H8.97832L8.77324 17.5H9.82051ZM8.84844 16.4062L9.21348 14.2188H9.38027L9.74531 16.4062H8.84844ZM9.29688 13.125C8.7042 13.125 8.20312 12.3737 8.20312 11.4844C8.20312 10.9231 8.77598 10.1076 9.29551 9.53271C9.76377 10.0522 10.3906 10.8828 10.3906 11.4844C10.3906 12.3737 9.88955 13.125 9.29688 13.125ZM15.2482 12.0312L15.3125 12.1604V12.5781H13.125V12.1604L13.1893 12.0312H15.2482ZM13.7361 10.9375L14.2188 9.97295L14.7014 10.9375H13.7361ZM15.3125 13.6719V22.3535C15.3127 22.3764 15.3143 22.3992 15.3173 22.4219H13.1202C13.1232 22.3992 13.1248 22.3764 13.125 22.3535V13.6719H15.3125ZM20.2344 11.4844H21.875V12.5781H21.3281C21.1831 12.5781 21.044 12.6357 20.9414 12.7383C20.8389 12.8409 20.7812 12.98 20.7812 13.125C20.7812 13.27 20.8389 13.4091 20.9414 13.5117C21.044 13.6143 21.1831 13.6719 21.3281 13.6719H21.875V14.7656H20.2344C20.0893 14.7656 19.9502 14.8232 19.8477 14.9258C19.7451 15.0284 19.6875 15.1675 19.6875 15.3125C19.6875 15.4575 19.7451 15.5966 19.8477 15.6992C19.9502 15.8018 20.0893 15.8594 20.2344 15.8594H21.875V16.9531H21.3281C21.1831 16.9531 21.044 17.0107 20.9414 17.1133C20.8389 17.2159 20.7812 17.355 20.7812 17.5C20.7812 17.645 20.8389 17.7841 20.9414 17.8867C21.044 17.9893 21.1831 18.0469 21.3281 18.0469H21.875V19.1406H20.2344C20.0893 19.1406 19.9502 19.1982 19.8477 19.3008C19.7451 19.4034 19.6875 19.5425 19.6875 19.6875C19.6875 19.8325 19.7451 19.9716 19.8477 20.0742C19.9502 20.1768 20.0893 20.2344 20.2344 20.2344H21.875V22.4219H18.0469V9.29688H21.875V10.3906H20.2344C20.0893 10.3906 19.9502 10.4482 19.8477 10.5508C19.7451 10.6534 19.6875 10.7925 19.6875 10.9375C19.6875 11.0825 19.7451 11.2216 19.8477 11.3242C19.9502 11.4268 20.0893 11.4844 20.2344 11.4844ZM26.7969 18.0469V22.3535C26.7971 22.3764 26.7987 22.3992 26.8017 22.4219H24.6046C24.6076 22.3992 24.6092 22.3764 24.6094 22.3535V18.0469H26.7969ZM24.6094 16.9531V16.5354L25.7031 14.3479L26.7969 16.5354V16.9531H24.6094ZM33.3594 22.4219H27.8858C27.8888 22.3992 27.8904 22.3764 27.8906 22.3535V16.4062C27.8905 16.3213 27.8709 16.2376 27.8332 16.1615L26.1926 12.8803C26.1471 12.7895 26.0772 12.7131 25.9907 12.6597C25.9043 12.6064 25.8047 12.5781 25.7031 12.5781C25.6015 12.5781 25.502 12.6064 25.4155 12.6597C25.3291 12.7131 25.2592 12.7895 25.2137 12.8803L23.573 16.1615C23.5354 16.2376 23.5157 16.3213 23.5156 16.4062V22.3535C23.5158 22.3764 23.5174 22.3992 23.5204 22.4219H22.9688V8.75C22.9688 8.60496 22.9111 8.46586 22.8086 8.3633C22.706 8.26074 22.5669 8.20312 22.4219 8.20312H17.5C17.355 8.20312 17.2159 8.26074 17.1133 8.3633C17.0107 8.46586 16.9531 8.60496 16.9531 8.75V22.4219H16.4015C16.4044 22.3992 16.406 22.3764 16.4062 22.3535V12.0312C16.4062 11.9463 16.3865 11.8626 16.3488 11.7865L14.7082 8.50527C14.6627 8.41446 14.5928 8.33809 14.5064 8.28473C14.4199 8.23137 14.3203 8.2031 14.2188 8.2031C14.1172 8.2031 14.0176 8.23137 13.9311 8.28473C13.8447 8.33809 13.7748 8.41446 13.7293 8.50527L12.0887 11.7865C12.051 11.8626 12.0313 11.9463 12.0312 12.0312V22.3535C12.0315 22.3764 12.0331 22.3992 12.036 22.4219H10.7099L10.9368 16.9757C10.9375 16.9634 10.9368 16.9511 10.9368 16.9381V16.9217C10.9356 16.9024 10.9333 16.8833 10.93 16.8643V16.8629L10.4241 13.8271C11.0592 13.3479 11.4844 12.477 11.4844 11.4844C11.4844 10.0789 9.85537 8.52236 9.66943 8.34941C9.5681 8.25549 9.43504 8.2033 9.29688 8.2033C9.15871 8.2033 9.02565 8.25549 8.92432 8.34941C8.73838 8.52236 7.10938 10.0789 7.10938 11.4844C7.10938 12.477 7.53457 13.3479 8.16963 13.8271L7.66377 16.8629V16.8643C7.66048 16.8833 7.6582 16.9024 7.65693 16.9217V16.9381C7.65693 16.9511 7.65625 16.9634 7.65693 16.9757L7.88389 22.4219H1.64062V6.01562C1.641 5.72566 1.75636 5.44768 1.9614 5.24265C2.16643 5.03761 2.44441 4.92225 2.73438 4.92188H32.2656C32.5556 4.92225 32.8336 5.03761 33.0386 5.24265C33.2436 5.44768 33.359 5.72566 33.3594 6.01562V22.4219Z" fill="#3C42B9"/>
<path d="M6.5625 24.0625H3.28125C3.13621 24.0625 2.99711 24.1201 2.89455 24.2227C2.79199 24.3252 2.73438 24.4643 2.73438 24.6094C2.73438 24.7544 2.79199 24.8935 2.89455 24.9961C2.99711 25.0986 3.13621 25.1562 3.28125 25.1562H6.5625C6.70754 25.1562 6.84664 25.0986 6.9492 24.9961C7.05176 24.8935 7.10938 24.7544 7.10938 24.6094C7.10938 24.4643 7.05176 24.3252 6.9492 24.2227C6.84664 24.1201 6.70754 24.0625 6.5625 24.0625Z" fill="#3C42B9"/>
<path d="M8.75 24.0625H8.20312C8.05808 24.0625 7.91899 24.1201 7.81643 24.2227C7.71387 24.3252 7.65625 24.4643 7.65625 24.6094C7.65625 24.7544 7.71387 24.8935 7.81643 24.9961C7.91899 25.0986 8.05808 25.1562 8.20312 25.1562H8.75C8.89504 25.1562 9.03414 25.0986 9.1367 24.9961C9.23926 24.8935 9.29688 24.7544 9.29688 24.6094C9.29688 24.4643 9.23926 24.3252 9.1367 24.2227C9.03414 24.1201 8.89504 24.0625 8.75 24.0625Z" fill="#3C42B9"/>
<path d="M14.2188 14.2188C14.0737 14.2188 13.9346 14.2764 13.8321 14.3789C13.7295 14.4815 13.6719 14.6206 13.6719 14.7656V20.7812C13.6719 20.9263 13.7295 21.0654 13.8321 21.1679C13.9346 21.2705 14.0737 21.3281 14.2188 21.3281C14.3638 21.3281 14.5029 21.2705 14.6054 21.1679C14.708 21.0654 14.7656 20.9263 14.7656 20.7812V14.7656C14.7656 14.6206 14.708 14.4815 14.6054 14.3789C14.5029 14.2764 14.3638 14.2188 14.2188 14.2188Z" fill="#3C42B9"/>
<path d="M25.7031 18.5938C25.5581 18.5938 25.419 18.6514 25.3164 18.7539C25.2139 18.8565 25.1562 18.9956 25.1562 19.1406V20.7812C25.1562 20.9263 25.2139 21.0654 25.3164 21.1679C25.419 21.2705 25.5581 21.3281 25.7031 21.3281C25.8482 21.3281 25.9873 21.2705 26.0898 21.1679C26.1924 21.0654 26.25 20.9263 26.25 20.7812V19.1406C26.25 18.9956 26.1924 18.8565 26.0898 18.7539C25.9873 18.6514 25.8482 18.5938 25.7031 18.5938Z" fill="#3C42B9"/>
<path d="M3.28125 7.10938H7.65625C7.80129 7.10938 7.94039 7.05176 8.04295 6.9492C8.14551 6.84664 8.20312 6.70754 8.20312 6.5625C8.20312 6.41746 8.14551 6.27836 8.04295 6.1758C7.94039 6.07324 7.80129 6.01562 7.65625 6.01562H3.28125C3.13621 6.01562 2.99711 6.07324 2.89455 6.1758C2.79199 6.27836 2.73438 6.41746 2.73438 6.5625C2.73438 6.70754 2.79199 6.84664 2.89455 6.9492C2.99711 7.05176 3.13621 7.10938 3.28125 7.10938Z" fill="#3C42B9"/>
<path d="M3.28125 8.75H4.375C4.52004 8.75 4.65914 8.69238 4.7617 8.58982C4.86426 8.48726 4.92188 8.34817 4.92188 8.20312C4.92188 8.05808 4.86426 7.91899 4.7617 7.81643C4.65914 7.71387 4.52004 7.65625 4.375 7.65625H3.28125C3.13621 7.65625 2.99711 7.71387 2.89455 7.81643C2.79199 7.91899 2.73438 8.05808 2.73438 8.20312C2.73438 8.34817 2.79199 8.48726 2.89455 8.58982C2.99711 8.69238 3.13621 8.75 3.28125 8.75Z" fill="#3C42B9"/>
<path d="M29.5312 21.3281H31.7188C31.8638 21.3281 32.0029 21.2705 32.1054 21.1679C32.208 21.0654 32.2656 20.9263 32.2656 20.7812C32.2656 20.6362 32.208 20.4971 32.1054 20.3946C32.0029 20.292 31.8638 20.2344 31.7188 20.2344H29.5312C29.3862 20.2344 29.2471 20.292 29.1446 20.3946C29.042 20.4971 28.9844 20.6362 28.9844 20.7812C28.9844 20.9263 29.042 21.0654 29.1446 21.1679C29.2471 21.2705 29.3862 21.3281 29.5312 21.3281Z" fill="#3C42B9"/>
<path d="M31.1719 19.6875H31.7188C31.8638 19.6875 32.0029 19.6299 32.1054 19.5273C32.208 19.4248 32.2656 19.2857 32.2656 19.1406C32.2656 18.9956 32.208 18.8565 32.1054 18.7539C32.0029 18.6514 31.8638 18.5938 31.7188 18.5938H31.1719C31.0268 18.5938 30.8877 18.6514 30.7852 18.7539C30.6826 18.8565 30.625 18.9956 30.625 19.1406C30.625 19.2857 30.6826 19.4248 30.7852 19.5273C30.8877 19.6299 31.0268 19.6875 31.1719 19.6875Z" fill="#3C42B9"/>
</svg>
