<svg width="35" height="35" fill="none" xmlns="http://www.w3.org/2000/svg"><path d="M6.016 22.422h5.468c.905 0 1.641-.736 1.641-1.64 0-.905-.736-1.641-1.64-1.641h-5.47c-.904 0-1.64.736-1.64 1.64 0 .905.736 1.64 1.64 1.64zm0-2.188h5.468a.547.547 0 010 1.094H6.016a.547.547 0 010-1.094z" fill="#3C42B9"/><path d="M32.813 12.578c.904 0 1.64-.736 1.64-1.64v-8.75c0-.905-.736-1.641-1.64-1.641h-3.829c-.514 0-1.004.245-1.312.656l-1.149 1.531h-4.648c-.904 0-1.64.736-1.64 1.641v2.188h-4.95C15.005 3.2 12.185.546 8.75.546a6.57 6.57 0 00-6.563 6.562c0 3.434 2.653 6.255 6.016 6.535v3.321c-4.4.124-7.656 1.72-7.656 3.816v10.39c0 2.132 4.227 3.282 8.203 3.282 3.976 0 8.203-1.15 8.203-3.281V27.89h3.31c.28 3.664 3.346 6.562 7.08 6.562 3.92 0 7.11-3.19 7.11-7.11 0-3.734-2.898-6.8-6.562-7.08v-7.685h4.922zm0-1.094H21.874a.547.547 0 01-.547-.546V6.016H33.36v4.921a.547.547 0 01-.547.547zM21.874 3.828h5.195l1.477-1.97a.548.548 0 01.437-.217h3.828c.302 0 .547.245.547.546v2.735H21.33v-.547c0-.301.244-.547.546-.547zM3.281 7.11c0-.571.09-1.122.252-1.64h2.1a8.396 8.396 0 00-.164 1.64c0 .586.064 1.13.165 1.641h-2.1a5.46 5.46 0 01-.253-1.64zm3.281 0c0-.59.076-1.135.194-1.64h3.99c.117.505.191 1.05.191 1.64 0 .59-.075 1.136-.193 1.641h-3.99a7.223 7.223 0 01-.191-1.64zm2.19-5.265a7.898 7.898 0 011.65 2.531h-3.3a8.005 8.005 0 011.65-2.531zm1.646 8a7.992 7.992 0 01-1.65 2.531 7.897 7.897 0 01-1.65-2.531h3.3zm1.178 0h1.903a5.487 5.487 0 01-3.28 2.533 8.83 8.83 0 001.377-2.533zm2.643-2.735c0 .572-.089 1.123-.252 1.641h-2.1c.1-.51.164-1.055.164-1.64 0-.586-.064-1.13-.165-1.641h2.1c.164.518.253 1.069.253 1.64zm-.74-2.734h-1.903a8.83 8.83 0 00-1.377-2.534 5.486 5.486 0 013.28 2.534zM7.3 1.841a8.83 8.83 0 00-1.377 2.534H4.021a5.486 5.486 0 013.28-2.534zM4.02 9.844h1.903A8.83 8.83 0 007.3 12.377a5.487 5.487 0 01-3.28-2.533zm4.729 8.203c4.19 0 7.11 1.44 7.11 2.734s-2.92 2.735-7.11 2.735-7.11-1.441-7.11-2.735c0-1.293 2.92-2.734 7.11-2.734zM1.64 22.74c1.392 1.134 3.992 1.868 7.11 1.868 3.118 0 5.718-.734 7.11-1.868v1.868c0 .892-2.77 2.188-7.11 2.188S1.64 25.5 1.64 24.609v-1.868zm0 3.567c1.514 1.037 4.37 1.583 7.11 1.583s5.596-.546 7.11-1.582v1.582c0 .892-2.77 2.187-7.11 2.187s-7.11-1.295-7.11-2.187v-1.582zm7.11 7.051c-4.34 0-7.11-1.295-7.11-2.187V29.59c1.514 1.036 4.37 1.582 7.11 1.582s5.596-.546 7.11-1.582v1.582c0 .892-2.77 2.187-7.11 2.187zm14.41-1.702a3.801 3.801 0 013.637-2.673h1.094a3.8 3.8 0 013.636 2.673 5.993 5.993 0 01-8.367 0zm4.184-3.766a2.19 2.19 0 01-2.188-2.188 2.19 2.19 0 012.188-2.187 2.19 2.19 0 012.187 2.187 2.19 2.19 0 01-2.187 2.188zm6.015-.547a5.985 5.985 0 01-1.025 3.355 4.882 4.882 0 00-2.824-2.537 3.273 3.273 0 001.115-2.459 3.284 3.284 0 00-3.281-3.281 3.285 3.285 0 00-3.282 3.281c0 .979.434 1.857 1.116 2.459a4.888 4.888 0 00-2.825 2.537 5.981 5.981 0 01-1.025-3.355 6.023 6.023 0 016.016-6.016 6.023 6.023 0 016.015 6.016zm-6.562-7.082a7.11 7.11 0 00-6.535 6.535h-3.309V20.78c0-2.095-3.256-3.692-7.656-3.816v-3.321a6.566 6.566 0 005.988-5.988h4.95v3.282c0 .904.736 1.64 1.64 1.64h4.922v7.684z" fill="#3C42B9"/><path d="M31.172 2.734h1.094v1.094h-1.094V2.734zm-2.188 0h1.094v1.094h-1.094V2.734zm-6.562 6.563h1.094v1.094h-1.094V9.297zm2.188 0h1.093v1.094H24.61V9.297zm2.187 0h1.094v1.094h-1.094V9.297zm-17.5-2.734h1.094v1.093H9.297V6.563zm-2.187 0h1.093v1.093H7.11V6.563z" fill="#3C42B9"/></svg>