<svg width="35" height="35" fill="none" xmlns="http://www.w3.org/2000/svg"><g clip-path="url(#clip0)"><path d="M33.192 17.208h-4.025v-10.5a2.92 2.92 0 00-2.917-2.916H8.75a2.92 2.92 0 00-2.917 2.916v3.5h-3.2A2.636 2.636 0 000 12.841v15.734a2.636 2.636 0 002.633 2.633h9.317a2.629 2.629 0 002.47-1.75H24.5a.583.583 0 00.583-.583v-1.167a1.75 1.75 0 00-1.75-1.75h-1.75v-2.333h4.667V29.4c0 .999.81 1.808 1.808 1.808h5.133c1 0 1.809-.81 1.809-1.808V19.017c0-1-.81-1.809-1.808-1.809zM13.417 28.575a1.469 1.469 0 01-1.467 1.467H2.633a1.467 1.467 0 01-1.466-1.467v-.283h12.25v.283zm0-1.45H1.167V14.292h12.25v12.833zm0-14H1.167v-.284c0-.81.656-1.465 1.466-1.466h9.317c.81 0 1.466.657 1.467 1.466v.284zm9.916 14c.322 0 .584.261.584.583v.584h-9.334v-1.167h8.75zm-8.75-1.167v-2.333h5.833v2.333h-5.833zm11.667-3.5H14.583v-1.75H26.25v1.75zm0-3.441v.525H14.583v-6.7a2.636 2.636 0 00-2.633-2.634H7v-3.5c0-.966.783-1.75 1.75-1.75h17.5c.966 0 1.75.784 1.75 1.75v10.506a1.808 1.808 0 00-1.75 1.803zM33.833 29.4a.642.642 0 01-.642.642h-5.133a.642.642 0 01-.642-.642v-.525h6.417v.525zm0-1.692h-6.416v-7h6.416v7zm0-8.166h-6.416v-.525c0-.355.287-.642.641-.642h5.133c.355 0 .642.287.642.642v.525z" fill="#3C42B9"/></g><defs><clipPath id="clip0"><path fill="#fff" d="M0 0h35v35H0z"/></clipPath></defs></svg>