<svg width="60" height="60" viewBox="0 0 60 60" fill="none" xmlns="http://www.w3.org/2000/svg">
<circle cx="30" cy="30" r="30" fill="#E1C5F8"/>
<g clip-path="url(#clip0)">
<path d="M46.8646 22.5435L41.0313 15.5436C40.9205 15.4112 40.7566 15.3342 40.5833 15.3342H18.4169C18.2437 15.3342 18.0798 15.4107 17.9689 15.5436L12.1357 22.5435C11.9904 22.7173 11.9589 22.9594 12.0552 23.1641C12.1514 23.3689 12.3573 23.5001 12.5836 23.5001H46.4165C46.6428 23.5001 46.8487 23.3689 46.945 23.1641C47.0407 22.96 47.0098 22.7179 46.8646 22.5435ZM13.8291 22.3335L18.69 16.5003H40.3097L45.1706 22.3335H13.8291Z" fill="white"/>
<path d="M30.0396 15.6934C29.9492 15.4753 29.7363 15.3335 29.5006 15.3335H18.4174C18.2086 15.3335 18.0161 15.4449 17.9117 15.6263C17.8073 15.8078 17.8079 16.03 17.9135 16.2108L21.9968 23.2107C22.0877 23.3664 22.2459 23.4721 22.4255 23.4954C22.4506 23.4983 22.4757 23.5 22.5001 23.5C22.6542 23.5 22.8029 23.4394 22.9132 23.3291L29.9131 16.3292C30.0799 16.1624 30.13 15.9115 30.0396 15.6934ZM22.6226 21.9694L19.4324 16.5002H28.0919L22.6226 21.9694Z" fill="white"/>
<path d="M46.9386 22.6577C46.8405 22.4587 46.6376 22.3328 46.4159 22.3328H12.5831C12.3614 22.3328 12.159 22.4587 12.0604 22.6577C11.9624 22.8566 11.9851 23.094 12.1199 23.2702L29.0363 45.4365C29.1466 45.5812 29.3181 45.6664 29.5001 45.6664C29.682 45.6664 29.8535 45.5812 29.9626 45.4365L46.8791 23.2702C47.0138 23.094 47.0365 22.8566 46.9386 22.6577ZM29.5001 44.1217L13.7625 23.5001H45.2376L29.5001 44.1217Z" fill="white"/>
<path d="M30.0566 44.9069L23.0567 22.7405C22.9798 22.4978 22.7551 22.3328 22.5002 22.3328H12.5837C12.362 22.3328 12.1596 22.4587 12.061 22.6577C11.963 22.8566 11.9857 23.094 12.1205 23.2702L29.0369 45.4365C29.1501 45.5853 29.3234 45.6664 29.5007 45.6664C29.5917 45.6664 29.6838 45.6454 29.769 45.5999C30.0205 45.4698 30.1417 45.177 30.0566 44.9069ZM13.7626 23.5001H22.0726L27.9385 42.0755L13.7626 23.5001Z" fill="white"/>
<path d="M41.089 15.6263C40.9852 15.4449 40.7922 15.3335 40.5833 15.3335H29.5001C29.2645 15.3335 29.0515 15.4753 28.9611 15.6934C28.8706 15.9115 28.9208 16.1624 29.0877 16.3292L36.0876 23.3291C36.1972 23.4394 36.346 23.5 36.5 23.5C36.5251 23.5 36.5502 23.4982 36.5753 23.4954C36.7544 23.4721 36.913 23.3671 37.004 23.2107L41.0873 16.2108C41.1923 16.03 41.1929 15.8078 41.089 15.6263ZM36.3775 21.9694L30.9082 16.5002H39.5676L36.3775 21.9694Z" fill="white"/>
<path d="M46.9398 22.6591C46.8418 22.4602 46.6388 22.3342 46.4171 22.3342H36.5006C36.2457 22.3342 36.0205 22.4993 35.9441 22.742L28.9442 44.9084C28.859 45.1778 28.9803 45.4707 29.2318 45.6014C29.3169 45.6457 29.4091 45.6667 29.5001 45.6667C29.6768 45.6667 29.8501 45.5857 29.9638 45.4381L46.8803 23.2717C47.0151 23.0954 47.0378 22.858 46.9398 22.6591ZM31.0617 42.0757L36.9276 23.5002H45.2377L31.0617 42.0757Z" fill="white"/>
</g>
<defs>
<clipPath id="clip0">
<rect width="35" height="35" fill="white" transform="translate(12 13)"/>
</clipPath>
</defs>
</svg>
