<svg width="60" height="60" fill="none" xmlns="http://www.w3.org/2000/svg"><circle cx="30" cy="30" r="30" fill="#E1C5F8"/><path d="M19.834 46.541a1.86 1.86 0 01-1.813-2.275l2.252-9.918-7.636-6.697a1.86 1.86 0 011.055-3.255l10.103-.918 3.994-9.348a1.86 1.86 0 013.421-.001l3.995 9.35 10.102.917c.744.067 1.371.57 1.601 1.279.23.709.018 1.486-.544 1.976l-7.636 6.695 2.252 9.919a1.86 1.86 0 01-2.768 2.01L29.5 41.067l-8.712 5.21a1.864 1.864 0 01-.954.263zm9.666-7.716c.331 0 .659.089.954.264l8.222 4.918-2.125-9.362a1.86 1.86 0 01.59-1.813l7.21-6.323-9.54-.866a1.858 1.858 0 01-1.546-1.128L29.5 15.694l-3.77 8.823a1.853 1.853 0 01-1.541 1.123l-9.541.866 7.21 6.324a1.86 1.86 0 01.59 1.814l-2.124 9.36 8.222-4.915c.295-.175.623-.264.954-.264zm-5.782-15.166s0 .002-.002.003l.002-.003zm11.561-.004l.002.003c0-.002 0-.002-.002-.003z" fill="#fff"/></svg>