<svg width="60" height="60" fill="none" xmlns="http://www.w3.org/2000/svg"><circle cx="30" cy="30" r="30" fill="#E1C5F8"/><g clip-path="url(#clip0)" fill="#fff"><path d="M46.865 22.544l-5.834-7a.584.584 0 00-.448-.21H18.417a.583.583 0 00-.448.21l-5.833 7a.582.582 0 00.448.956h33.832a.584.584 0 00.449-.956zm-33.036-.21L18.69 16.5h21.62l4.86 5.834H13.83z"/><path d="M30.04 15.693a.583.583 0 00-.54-.36H18.418a.583.583 0 00-.504.878l4.084 7a.584.584 0 00.916.118l7-7a.583.583 0 00.127-.636zm-7.417 6.276l-3.19-5.469h8.659l-5.47 5.47z"/><path d="M46.939 22.658a.583.583 0 00-.523-.325H12.583a.583.583 0 00-.463.937l16.916 22.167a.583.583 0 00.927 0L46.879 23.27a.584.584 0 00.06-.612zM29.5 44.122L13.762 23.5h31.476L29.5 44.122z"/><path d="M30.057 44.907l-7-22.166a.584.584 0 00-.557-.408h-9.916a.583.583 0 00-.463.937l16.916 22.167a.582.582 0 001.02-.53zM13.763 23.5h8.31l5.866 18.575L13.763 23.5zm27.326-7.874a.582.582 0 00-.506-.292H29.5a.584.584 0 00-.412.995l7 7a.581.581 0 00.916-.118l4.083-7a.584.584 0 00.002-.585zm-4.712 6.343L30.908 16.5h8.66l-3.19 5.47z"/><path d="M46.94 22.66a.583.583 0 00-.523-.326h-9.916a.583.583 0 00-.557.408l-7 22.166a.584.584 0 001.02.53L46.88 23.272a.584.584 0 00.06-.613zM31.062 42.075L36.928 23.5h8.31L31.062 42.076z"/></g><defs><clipPath id="clip0"><path fill="#fff" transform="translate(12 13)" d="M0 0h35v35H0z"/></clipPath></defs></svg>