<svg width="30" height="30" viewBox="0 0 30 30" fill="none" xmlns="http://www.w3.org/2000/svg">
<circle cx="15" cy="15" r="15" fill="white"/>
<path d="M15 23C19.4183 23 23 19.4183 23 15C23 10.5817 19.4183 7 15 7C10.5817 7 7 10.5817 7 15C7 19.4183 10.5817 23 15 23Z" fill="#3C42B9"/>
<path d="M10.6607 14.8268L18.374 11.8528C18.732 11.7235 19.0447 11.9401 18.9287 12.4815L18.9293 12.4808L17.616 18.6681C17.5187 19.1068 17.258 19.2135 16.8933 19.0068L14.8933 17.5328L13.9287 18.4621C13.822 18.5688 13.732 18.6588 13.5253 18.6588L13.6673 16.6235L17.374 13.2748C17.5353 13.1328 17.338 13.0528 17.1253 13.1941L12.5447 16.0781L10.57 15.4621C10.1413 15.3261 10.132 15.0335 10.6607 14.8268Z" fill="white"/>
</svg>
