<svg width="38" height="38" fill="none" xmlns="http://www.w3.org/2000/svg"><g filter="url(#filter0_d)"><circle cx="19" cy="17" r="15" fill="#fff"/><path d="M19 25a8 8 0 100-16 8 8 0 000 16z" fill="#3C42B9"/><path d="M14.66 16.827l7.714-2.974c.358-.13.67.087.555.629v-.001l-1.313 6.187c-.097.439-.358.546-.723.339l-2-1.474-.964.93c-.107.106-.197.196-.404.196l.142-2.035 3.707-3.35c.161-.141-.036-.221-.249-.08l-4.58 2.884-1.975-.616c-.429-.136-.438-.428.09-.635z" fill="#fff"/></g><defs><filter id="filter0_d" x="0" y="0" width="38" height="38" filterUnits="userSpaceOnUse" color-interpolation-filters="sRGB"><feFlood flood-opacity="0" result="BackgroundImageFix"/><feColorMatrix in="SourceAlpha" values="0 0 0 0 0 0 0 0 0 0 0 0 0 0 0 0 0 0 127 0" result="hardAlpha"/><feOffset dy="2"/><feGaussianBlur stdDeviation="2"/><feColorMatrix values="0 0 0 0 0 0 0 0 0 0 0 0 0 0 0 0 0 0 0.25 0"/><feBlend in2="BackgroundImageFix" result="effect1_dropShadow"/><feBlend in="SourceGraphic" in2="effect1_dropShadow" result="shape"/></filter></defs></svg>