<svg width="38" height="38" fill="none" xmlns="http://www.w3.org/2000/svg"><g filter="url(#filter0_d)"><circle cx="19" cy="17" r="15" fill="#fff"/><g clip-path="url(#clip0)"><path d="M24.277 17.686c-.259-.327-.185-.473 0-.764.003-.004 2.138-2.955 2.358-3.955h.002c.109-.366 0-.633-.529-.633h-1.75c-.445 0-.65.23-.76.487 0 0-.89 2.132-2.15 3.514-.407.4-.595.527-.817.527-.11 0-.28-.128-.28-.492v-3.404c0-.437-.124-.632-.493-.632h-2.75c-.28 0-.446.204-.446.393 0 .415.63.51.695 1.677v2.532c0 .554-.1.656-.324.656-.594 0-2.038-2.14-2.893-4.59-.173-.476-.341-.668-.79-.668H11.6c-.5 0-.6.23-.6.488 0 .454.595 2.715 2.765 5.701 1.447 2.04 3.484 3.144 5.338 3.144 1.114 0 1.25-.245 1.25-.668 0-1.947-.101-2.131.457-2.131.259 0 .704.128 1.744 1.11 1.189 1.167 1.384 1.689 2.05 1.689h1.749c.498 0 .751-.245.606-.73-.333-1.018-2.581-3.111-2.682-3.252z" fill="#3C42B9"/></g></g><defs><clipPath id="clip0"><path fill="#fff" transform="translate(11 9)" d="M0 0h16v16H0z"/></clipPath><filter id="filter0_d" x="0" y="0" width="38" height="38" filterUnits="userSpaceOnUse" color-interpolation-filters="sRGB"><feFlood flood-opacity="0" result="BackgroundImageFix"/><feColorMatrix in="SourceAlpha" values="0 0 0 0 0 0 0 0 0 0 0 0 0 0 0 0 0 0 127 0" result="hardAlpha"/><feOffset dy="2"/><feGaussianBlur stdDeviation="2"/><feColorMatrix values="0 0 0 0 0 0 0 0 0 0 0 0 0 0 0 0 0 0 0.25 0"/><feBlend in2="BackgroundImageFix" result="effect1_dropShadow"/><feBlend in="SourceGraphic" in2="effect1_dropShadow" result="shape"/></filter></defs></svg>