<svg width="38" height="38" viewBox="0 0 38 38" fill="none" xmlns="http://www.w3.org/2000/svg">
<g filter="url(#filter0_d)">
<circle cx="19" cy="17" r="15" fill="white"/>
<path fill-rule="evenodd" clip-rule="evenodd" d="M24.3059 11.6721C22.9026 10.2671 21.0363 9.49301 19.0481 9.49219C14.9511 9.49219 11.6167 12.8264 11.6151 16.9245C11.6145 18.2346 11.9568 19.5134 12.6072 20.6406L11.5527 24.4922L15.4931 23.4586C16.5788 24.0508 17.8011 24.3629 19.045 24.3633H19.0482C23.1447 24.3633 26.4794 21.0287 26.481 16.9305C26.4818 14.9443 25.7093 13.0769 24.3059 11.6721ZM19.0481 23.108H19.0455C17.937 23.1075 16.8498 22.8096 15.9011 22.2469L15.6756 22.1129L13.3374 22.7263L13.9615 20.4466L13.8145 20.2128C13.1961 19.2292 12.8695 18.0923 12.8701 16.925C12.8714 13.5188 15.6429 10.7476 19.0505 10.7476C20.7007 10.7481 22.2519 11.3915 23.4182 12.5593C24.5846 13.7271 25.2266 15.2792 25.226 16.93C25.2246 20.3365 22.4533 23.108 19.0481 23.108ZM22.4368 18.481C22.2511 18.388 21.338 17.9388 21.1677 17.8768C20.9976 17.8148 20.8736 17.7839 20.7499 17.9698C20.6261 18.1556 20.2702 18.574 20.1618 18.6979C20.0534 18.8219 19.9452 18.8374 19.7594 18.7444C19.5737 18.6515 18.9753 18.4553 18.2658 17.8226C17.7138 17.3301 17.3411 16.7219 17.2327 16.5361C17.1244 16.35 17.2317 16.2592 17.3141 16.157C17.5152 15.9074 17.7165 15.6456 17.7784 15.5218C17.8404 15.3978 17.8094 15.2893 17.7628 15.1964C17.7165 15.1035 17.3451 14.1893 17.1904 13.8173C17.0395 13.4553 16.8865 13.5042 16.7724 13.4985C16.6642 13.4931 16.5403 13.492 16.4165 13.492C16.2927 13.492 16.0915 13.5385 15.9212 13.7245C15.751 13.9104 15.2712 14.3597 15.2712 15.2738C15.2712 16.188 15.9367 17.0711 16.0296 17.1951C16.1224 17.319 17.3392 19.1949 19.2022 19.9993C19.6454 20.1909 19.9912 20.305 20.261 20.3906C20.706 20.532 21.1107 20.512 21.4308 20.4642C21.7877 20.4109 22.5295 20.0149 22.6844 19.5811C22.8392 19.1472 22.8392 18.7755 22.7927 18.6979C22.7463 18.6205 22.6225 18.574 22.4368 18.481Z" fill="#3C42B9"/>
</g>
<defs>
<filter id="filter0_d" x="0" y="0" width="38" height="38" filterUnits="userSpaceOnUse" color-interpolation-filters="sRGB">
<feFlood flood-opacity="0" result="BackgroundImageFix"/>
<feColorMatrix in="SourceAlpha" type="matrix" values="0 0 0 0 0 0 0 0 0 0 0 0 0 0 0 0 0 0 127 0" result="hardAlpha"/>
<feOffset dy="2"/>
<feGaussianBlur stdDeviation="2"/>
<feColorMatrix type="matrix" values="0 0 0 0 0 0 0 0 0 0 0 0 0 0 0 0 0 0 0.25 0"/>
<feBlend mode="normal" in2="BackgroundImageFix" result="effect1_dropShadow"/>
<feBlend mode="normal" in="SourceGraphic" in2="effect1_dropShadow" result="shape"/>
</filter>
</defs>
</svg>
