<svg xmlns="http://www.w3.org/2000/svg" width="284" height="54" viewBox="0 0 284 54" fill="none"><line x1="37.3001" y1="18.8067" x2="24.8067" y2="41.0846" stroke="#EE3D62" stroke-width="10" stroke-linecap="round"></line><line x1="36.8092" y1="17.9066" x2="49.9066" y2="41.1908" stroke="#FFC119" stroke-width="10" stroke-linecap="round"></line><line x1="65.7247" y1="7.28533" x2="50.2854" y2="41.1726" stroke="#EE3D62" stroke-width="11" stroke-linecap="round"></line><line x1="24.551" y1="41.3429" x2="7.54469" y2="7.38048" stroke="#FFC119" stroke-width="11" stroke-linecap="round"></line><path d="M82.2 26.4C81.1333 26.4 80.6 26.9333 80.6 28V30.2H87.4V28C87.4 26.9333 86.8667 26.4 85.8 26.4H82.2ZM93.6 42.6C88.4533 43.1333 83.7867 43.4 79.6 43.4C77.7867 43.4 76.3333 42.8533 75.24 41.76C74.1467 40.6667 73.6 39.2133 73.6 37.4V27.8C73.6 25.8 74.16 24.24 75.28 23.12C76.4267 21.9733 78 21.4 80 21.4H88C90 21.4 91.56 21.9733 92.68 23.12C93.8267 24.24 94.4 25.8 94.4 27.8V35.2H80.6V36.8C80.6 37.2 80.7333 37.5333 81 37.8C81.2667 38.0667 81.6 38.2 82 38.2C84.64 38.2 88.5067 38 93.6 37.6V42.6ZM112.184 28.2C112.184 27.8 112.051 27.4667 111.784 27.2C111.518 26.9333 111.184 26.8 110.784 26.8H109.784C108.664 26.8 107.691 26.8533 106.864 26.96C106.064 27.0667 105.438 27.1467 104.984 27.2V37.6H110.584C111.651 37.6 112.184 37.0667 112.184 36V28.2ZM104.984 22.2C107.571 21.6667 109.838 21.4 111.784 21.4H113.184C114.998 21.4 116.451 21.9467 117.544 23.04C118.638 24.1333 119.184 25.5867 119.184 27.4V36.6C119.184 38.6 118.611 40.1733 117.464 41.32C116.344 42.44 114.784 43 112.784 43H97.9844V15H104.984V22.2ZM134.589 27.2C133.176 27.2 131.576 27.4667 129.789 28V37.6H135.789C136.856 37.6 137.389 37.0667 137.389 36V28.6C137.389 28.2 137.256 27.8667 136.989 27.6C136.722 27.3333 136.389 27.2 135.989 27.2H134.589ZM129.789 43V49.8H122.789V21.8H128.989L129.389 23.8C130.642 22.9733 131.922 22.3733 133.229 22C134.562 21.6 135.682 21.4 136.589 21.4H138.389C140.202 21.4 141.656 21.9467 142.749 23.04C143.842 24.1333 144.389 25.5867 144.389 27.4V36.6C144.389 38.6 143.816 40.1733 142.669 41.32C141.549 42.44 139.989 43 137.989 43H129.789ZM160.184 27.6C158.504 27.6 156.771 28 154.984 28.8V43H147.984V21.8H154.184L154.584 24.4C156.878 22.4 159.278 21.4 161.784 21.4H163.584V27.6H160.184ZM187.202 37C187.202 39 186.628 40.5733 185.482 41.72C184.362 42.84 182.802 43.4 180.802 43.4H171.602C169.602 43.4 168.028 42.84 166.882 41.72C165.762 40.5733 165.202 39 165.202 37V27.8C165.202 25.8 165.762 24.24 166.882 23.12C168.028 21.9733 169.602 21.4 171.602 21.4H180.802C182.802 21.4 184.362 21.9733 185.482 23.12C186.628 24.24 187.202 25.8 187.202 27.8V37ZM180.202 28.4C180.202 27.3333 179.668 26.8 178.602 26.8H173.802C172.735 26.8 172.202 27.3333 172.202 28.4V36.4C172.202 37.4667 172.735 38 173.802 38H178.602C179.668 38 180.202 37.4667 180.202 36.4V28.4ZM207.997 20.4C207.224 20.3467 206.197 20.2667 204.917 20.16C203.637 20.0533 202.53 20 201.597 20C200.664 20 200.064 20.1333 199.797 20.4C199.53 20.6667 199.397 21 199.397 21.4V23.4H205.997V28.8H199.397V43H192.397V28.8H189.597V23.4H192.397V20.6C192.397 18.7867 192.944 17.3333 194.037 16.24C195.13 15.1467 196.584 14.6 198.397 14.6C200.024 14.6 201.744 14.6533 203.557 14.76C205.37 14.8667 206.85 14.9467 207.997 15V20.4ZM214.405 50.2C212.991 50.2 211.258 50.0667 209.205 49.8V44.6H212.805C213.818 44.6 214.471 44.32 214.765 43.76C215.085 43.2 215.031 42.4133 214.605 41.4L206.405 21.8H213.805L218.805 35.4L223.005 21.8H230.405L222.405 43.8C221.631 45.9067 220.631 47.4933 219.405 48.56C218.178 49.6533 216.511 50.2 214.405 50.2ZM229.606 37H236.806V43H229.606V37ZM247.016 34.6V43H240.016V15H247.016V29.2H250.216L254.616 21.8H262.016L256.016 32L262.016 43H254.616L250.016 34.6H247.016ZM282.6 27.2L271.6 37.6H282.6V43H262.8V37.6L273.8 27.2H262.8V21.8H282.6V27.2Z" fill="white"></path></svg>