<svg width="38" height="38" viewBox="0 0 38 38" fill="none" xmlns="http://www.w3.org/2000/svg">
<g filter="url(#filter0_d)">
<circle cx="19" cy="17" r="15" fill="white"/>
<path d="M19 25C23.4183 25 27 21.4183 27 17C27 12.5817 23.4183 9 19 9C14.5817 9 11 12.5817 11 17C11 21.4183 14.5817 25 19 25Z" fill="#3C42B9"/>
<path d="M14.6607 16.8268L22.3741 13.8528C22.7321 13.7235 23.0447 13.9401 22.9287 14.4815L22.9294 14.4808L21.6161 20.6681C21.5187 21.1068 21.2581 21.2135 20.8934 21.0068L18.8934 19.5328L17.9287 20.4621C17.8221 20.5688 17.7321 20.6588 17.5254 20.6588L17.6674 18.6235L21.3741 15.2748C21.5354 15.1328 21.3381 15.0528 21.1254 15.1941L16.5447 18.0781L14.5701 17.4621C14.1414 17.3261 14.1321 17.0335 14.6607 16.8268Z" fill="white"/>
</g>
<defs>
<filter id="filter0_d" x="0" y="0" width="38" height="38" filterUnits="userSpaceOnUse" color-interpolation-filters="sRGB">
<feFlood flood-opacity="0" result="BackgroundImageFix"/>
<feColorMatrix in="SourceAlpha" type="matrix" values="0 0 0 0 0 0 0 0 0 0 0 0 0 0 0 0 0 0 127 0" result="hardAlpha"/>
<feOffset dy="2"/>
<feGaussianBlur stdDeviation="2"/>
<feColorMatrix type="matrix" values="0 0 0 0 0 0 0 0 0 0 0 0 0 0 0 0 0 0 0.25 0"/>
<feBlend mode="normal" in2="BackgroundImageFix" result="effect1_dropShadow"/>
<feBlend mode="normal" in="SourceGraphic" in2="effect1_dropShadow" result="shape"/>
</filter>
</defs>
</svg>
